<mxfile host="app.diagrams.net" agent="Mozilla/5.0 (Windows NT 10.0; Win64; x64) AppleWebKit/537.36 (KHTML, like Gecko) Chrome/134.0.0.0 Safari/537.36" version="26.1.1">
  <diagram name="第1頁" id="wC7kurbf7wUDReqNRRzc">
    <mxGraphModel dx="3968" dy="1968" grid="1" gridSize="10" guides="1" tooltips="1" connect="1" arrows="1" fold="1" page="1" pageScale="1" pageWidth="1169" pageHeight="827" math="0" shadow="0">
      <root>
        <mxCell id="0" />
        <mxCell id="1" parent="0" />
        <mxCell id="yyUo9B62AOgykevneYDa-2" value="" style="shape=image;verticalLabelPosition=bottom;labelBackgroundColor=default;verticalAlign=top;aspect=fixed;imageAspect=0;image=data:image/png,iVBORw0KGgoAAAANSUhEUgAAAsUAAAGKCAYAAADkLTw8AAAAAXNSR0IArs4c6QAAAARnQU1BAACxjwv8YQUAAAAJcEhZcwAADsMAAA7DAcdvqGQAANtNSURBVHhe7J13XBTHF8C/B2JiLKBgRUVNLNHYG/Yea6yJmtiCRg1YEmuiRkVjF2NHozH8rFFjF3vv2Ftij9iwgYKK0Yjc/v642/Vu7+Aod3AH8+UzH7j3Znfezuyw72Zn3mgkSZIQCAQCgd2wfNlyOnXupBYLBAKBwIY4qQUCgUAgEAgEAkF6QzjFAoFAIBAIBIJ0j0ZMnxAIBAKBQCAQpHfESLFAIBAIBAKBIN0jnGKBQCAQCAQCQbpHOMUCgUBgZyxftlwtEggEAoGNSZRTrNFo1CK7xZFsxcHsFbbaDkeyV9gqwMHq1pFsxcHsFbbaDkey19FtTZRT7Ehr8hzJVhzMXmGr7XAke4WtAhysbh3JVhzMXmGr7XAkex3dVhF9QiAQCAQCgUCQ7knUSLFAIBAIBAKBQJAWEU6xQCAQCAQCgSDdI5xigUAgsDNE9AmBQCBIeYRTLBAIBAKBQCBI9winWCAQCAQCgUCQ7hHRJwQCgUAgEAgE6R6jkWJzgYwNsaQnAXks6bFSHkt6rJTHkh4r5bGkx0p5LOmxUh5LeqyUx5IeK+WxpMdKeSzpsVIeS3qslMeSHivlsaTHSnks6bFSHkt6rJTHkh4r5bGkx0p5LOmxUh5LeqyUx5IeK+WxpMdKeSzpsVIeS3qslMeSHivlsaTHSnks6bFSHkt6EpDHkp448oiRYoFAIBAIBAJBukfMKRYIBAI7Q0SfEAgEgpRHOMUCgUAgEAgEgnSPcIoFAoFAIBAIBOkeMadYIBAIBAKBQJDuESPFAoFAIBAIBIJ0j3CKBQKBQCAQCATpHuEUCwQCgZ0hok8IBAJBypMop9hcoGN7xZFsxcHsFbbaDkeyV9gqwMHq1pFsxcHsFbbaDkey19FtTZRT7Ehr8hzJVhzMXmGr7XAke4WtAhysbh3JVhzMXmGr7XAkex3dVhF9QiAQCAQCgUCQ7knUSLFAIBAIBAKBQJAWEU6xQCAQCAQCgSDdI5xigUAgsDNE9AmBQCBIeYRTLBAIBAKBQCBI9winWCAQCAQCgUCQ7klU9AmNRmM2hIU94ki24mD2CltthyPZK2y1HY5kr7DVdjiSvcJW2+FI9jq6rYlyigWC9MzO89c5/c89HkVF8zDqhfJ7bs/W1C/9oTq7QCAQpDi1fppPxPOX5HHLSm63LMrvih/m59OyRdXZBQKBAcIpFgjiIOrla3ZfuM7Oc9fZef4a5Qvno+bHhU0eNjmzZVYfKhAIBKlG+POXJl/eD18O5WzofT4tW4xGZT+iUdliuGV+X32oQJCuEU6xQKDiafS/zNh8mEV7TtGw7Ed8WrYon5Yrlizn92zEa0aefMSFJ695HhOrVgsERsx1OUufmPJqsSCdkdXFiTLumRhXORflPTKp1Ykm/PlLdp67xq4LN9h17jo9GlTi+89qkiPLB+qsAkG6RDjFAoEeSZKYEXyYmVuO0qlWOb7/rGayHGGZsxGvqLc5lHYFclDa9QOyZHBWZxEIjMj09wZelWqtFgvSGdFvY7n47F/W3n3Kvs+KUN7DeiO74c9fMmPzYZYfOsd3zavzfYuaaDQadTaBIF0hnGKBANhw4m/Grt5D1WIF+L5FTYrny6nOkmSab7tNngwZqeqeVa0SCMyS+dJGXpZspRYL0ikhT17w6O0btjT1UquSzdX74cwIPszxa3cZ1b4BrauUUmcRCNINwikWpHtmBB9m8b7T+DWpRs9GVdTqZJN/6RUGFMtLlgwiAqJAIEg80W+1TL/2gHtdSqhVVmPhrhMEbj/G1/Ur8V3zGmq1QJAuEE9pQbpmQFAw+/+6yebhX9vEIUb/QMvsrAv9El8KvxfKt5WycXLHGhOdnEa2LsuKSQOMZDsWT+fbStlMZLP6tTE5PiFpZOuyXD971EQuGdg4snVZE52cZvVrE68+rrRi0oAE2WyunmRZ+L1Qk/yGSX3cyNZl461vdVoxaQDfVspm0gZJTZauecfi6Umuy28rZYuzHROTTu5YE6+NhmlWvzYmec3dn3Gl62ePGrXjyR1rzB6rzmeYZvVrY/YYSd/ehvUi3zcrJg2wWFZi23xWvzZm760VkwYk+lyZnTVEv9Wq/7VYlZ6NqrB5+Nfsu/gPA4I2q9UCQbpAOMWCdMmLV//RdspSJEliw49dye/uqs5iVbRaKUEJYNGI7szq11aRjWxTDt/KrvhWdkUCDq5ZxPWzx9BqJa6fPcb62aPxyF+YWf3a4lvZlRWTBiJJcOnYHlZMGohWKzGrX1t2LJ5hUt7JHWvwrezKyDbleHw3FN/KroTfC2XxGF+TvFqtRI68ute34fdCObljDdfPHmNkm3JKGb6VXZEknV4uW053r15U7NZqJXYsnqFcl29lVw6uWcSlY3vYsXgG188eU+RqG2b2bY1H/sJKPcl5AEa2LotWf12yXYblyfUr2yGpPltKOfIU1F//LROdVispdZjQJF+zuq7kJNelYT3I1xyfzfL7v7jaUauVFBvkNlTbJqdFI7pz6dgeo/p8EfmE62eP8fhuqNE53fMV4tKxPUb3b/bc+XVt06YcOxbPMHutclmy3SNbl+Xx3VBcc+ZTjjXMf2L7n0btbZjkcxjaoOh0Kk5s/1ORoe9Tclly/Z7cscbofHK/k+9Nw/5k2Pdk2eO7N1k0ortJv5Mk3bnka1bXYVwpJcjv7sqGH7siSdB2ylJevPpPnUUgSNMkavqEuUDH9ooj2YqD2ZsWbO06azUf5snB6PYN1Sqr4xZ0ifEldQ9cc6yaMohD634H/WK/ktUacjlkj6L38CxMRFgoc0Ii+ed8CNN7NwWgVtvuynEJZcCv2/iwrLfy2b9dBQDl/Ojtibh/mz4z1ij5DOnrnR3/tWcJn1KPnEP34d/uXZQE9fkNGdqoMBUbtaXD0Gn09c4OgM/Piwga2YOPvRvQYUgA/u3K07qPP4XLVGV676a07uNPwy7fARhde0Kp1bY7HYZOI3xKPcasO0frPv4AbJjrj//as8zp35acBYrQZ8YaTu9aR9DIHnh4FsZ/7Rn1qQDYvXQmTx7cocPQaWpVnMh17L/2jNHfavzbVSAiLBSAZUuX0blLZ4ijnT/2bgCARz4vs221asogACM7De8zua1P71rH5vnjyFmgCB75vOgwdBoRYbfwb1eej70bmJxX5vD6IFZOHoj/2rPU5wy12/VQZ4kX+Z6Wad3Hnw1zdW0THx6ehek7ax3+7corbatm7vefczlkD3NCIpW/fX5epLv38kcyYctVTu3406ROMbBL/u2/9izPIh4yvXdT5Xzezb9S7pOcBYpQvGItDm9YTM4CRbgcsseo3uZ+/znhd28atbdh/7J0z13+rjAfz9TV04hL94nyKanOYjPGrN7NzYdPWdy/vVpllrj+19ojjmQrDmavo9uaKKdYIEgLjPpjJ/eePuf3Pp+rVTbBLegS4z7OqxYbMebzikZOAsDXY3/jf6O+4euxvxH863hy5i8M+lHaiLBQRf/9/K2KI7p72SyObFhMjdbduHbqIH5xODXoHaL/jfqG0WvO4OFZSJH/cz6EGd82o1Uffxp27g/6826c68/oNWcY83kFpWzZYavVtjvthwQYnN2Yv4/uYv6gDnw7bRWvX74g+Nfx1GjdjY0qR+jjqvW5fHwvrfr4s3GuP636+FOuXkvGfF6B2ceeMubzinxctZ5SVkTYLSN71Nci069aDjw8C9Nn5lrGfK5zTDHjnBme5/alM/xv1DeKLiF8PfY3KjZqa7Y948Kw7uTjDJ1ic8htI7dVQjF3zwAEfv85Hp6FlLa8fHwfo9ecVnSXj+81OmZqd51TPuT3d1/eAFZPHcyhdb8z+9hTRSbfZ+oyzeXvVy0H6O+Dxj6Dja5NbtvVUwdz+fg+k7Y0x8dV6yvXlVjkezA+5PtVRq5fw+uX79G4MLzn5f5mjp8uP0hRpxig+9w15Hd3ZWzHRmqVQJAmEU6xIF3x+55TLD90luDhX5Mpo4tabRPcgi7xc4k8arEJT+7fYsznFanZtjvtB08F4Mzuddw4d4z2g6dy83wIy8b1BWDUn6cAGPtFJbPO19djF3J8yx9GD2yAln6jlQdv/+ruRp8N2b1sFpsCxxjp1WXVbNudJ2G3uHx8r5HN8vFHNy5R7PzfqG+4cnwfk3b8A8DqgCEcjsNRUTuqMh9XrU/RirXYFDhGreLjqvWp2vxL/jeqp5Hcw7MwJarWA1DK8/AszKg/TynX83HV+vhO172Ot4Rs9+g1p3HP9875ls8l19fYLyqBvp3i+luu4+/nbaGIylnM8c82nn7YNM48/au7K9chY3ju1QFDeBJ2C9/pf5o9R//q7gCKbN6AL3D3LMSV4/vM1j36e6pCw7aE3fiLyV3r0GHoNGq0/tooT3ztqr4G9DbnzF8Y3+l/sjpgCABXju8jZ/7CXD6+V7mP5S+CLf1GsylwDF+PXciNc8fMtsW8AV9w+fheZh19YlAS3Dwfwgzf5nw/bwsAUeH38SpZQelzlRq1Y4Zvc+XcOfIUoGHn/spxhuUY9h2536r1hhj2R/n+/nrsQv43qqeJ/XEx8srDFHeKX72JocWE//FVrXL0aFBZrRYI0hxiTrEg3RBy7Q7j1+5lbs9WKeYQy2glKc4UOOAL+ld3Z8znFanRxofD636nf3V3+ld353+jenLl+F76V3dnhm9zQCIiLJRdy2ahlSRAokTV+gB4eBaiRhsfPDwLcf3sUS4f30vXMQuZcSRCSfU79UMrSYz9oiIenoWUz+pUqLTuAbgpcAz9q7tz4/wxflp9khptfJRrKlK2Gp/rHWFDm/tXd2dT4BgiwkIJHPAFL6KecGb3eso3bKOcX/4uPuNIBAAlqtan65iFAHz102z6zwsG4DO/0Yq80dcDlTmh8jV/5jcagI8q1uJ/o3pSomp9o+v9afVJPh80hYiwW/ojdVNF+ld3JyIslBL6Ubr+1d05tWudYv+qqYNN6kQrScp5suf1MpLL7SDXJ+hSfH/L16JFMiq7f3V3OnfprNQjwAzf5kb6z/xGExEWyqld69BKuuMjwnSOY3jYLd0CLf19d3TjYgC2/2+aYu+MIxG6uvJtzqld6wi/d1PfJhL95wUb1WGJqvWp0caHcg107Xdm9wYAilWua1I/hu0qJ7n9tPrrltON88eICAulcrMvGftFRa4c30u9L/sAOttrtPFBK+lq7KfVJylRtb5SH/8b1ZPD636n65iFJm0h1+uN88foX92dwAFfoJUknj6+r9TlDN/m/G9UT8Z8XhH096+uf70796bAMbr61Z9RK73rx4Z9KTL8AZ/5jTayY8aRCOUe7jpmIeUatEHS37fFq9RVzgcQ+vcZk3o0l1KDTBldmNuzFRPW7iPk2h21WiBIcwinWJBumBF8mFFfNKCEZy61yuaoH3CGqde0Vbh7FqJ6Gx/aDZpCv0Ddw3TE6lP8cjic4atOAlCiaj28W3YFoN5XfdHqHYCPKtTkl8PheOQvzJH1QUhA9jwFAFgyuiff1/BQ0uld6/i5fSW8W3YlIuyWkc4wzfJtAUAL31GUqFqP5eN05R1ZHwSAu2chlozuSVT4AwC6+C/gl8Phiu3y517TVnHlxH4AqrXqplyz/Ij/voYHAFeO72XJ6J64exaiUOmqyuImt1yeiqMlSbo51+6eheg1bRVd/BewWe8kueXyVM5jeB3zB+ocohz5dAsEfzkczi+Hw3H3LEQL31H0mraKXw6Hg76uqrfx4ZfD4bQbNMWknbSSRPi9m7h7FjKRS0COfO+cot7T1yj1W6xKPbN/bw4cQwvfURQqXZVyDVortv1yOJwu/gtAX48tfEcpn9HfF/W+6ssvh8Mp16A14WG3WDK6J/0Cg3H3LMSfAYORgPB7N9m9bBYS0C8wWKkb2cZe01ZRvY0PTx/eVe4ZCZjl28KoDq8c36s42FpJ4sye9ZRr0JrseQuarQf07SqnJaN1o/eSBOH6aw8Pu8WpnWuVeo8Iu0Xv6WuICn/AlyPmEH7vJhUataNcg9b0mraKf86HcOX4XvoFBivt1cJ3FEtG9+Sf8yGsDhiilCe39SzfFnTxX8CV43v553wIJ7auAP29W6JqPSX9cjic6vove78cDqeF7yjQ1325Bq2Ve/HnLyryc/tKRtf2vb6vbA4co3xeHTAErSSx83+6+c7lGrRGq//CkSOfl1JH8n0t6y2l1KKEZy5GfdGAGcGH1SqBIM0hnGJBumDbmas8fhZNt3q6kaGURufQxZ0Ajq4PYmDNnMz20zmk49tXYmDNnAysqdtI5MrxfQTPGwvAwJo52bt8Nk/CbhE8bywDa+ZEkqB663cjudVb+zDtUDjTDoUzfJXuNXvko3s8CbtFmbotFV1nvcPVd26wIpPPU++rfvQMWM3wlSc5s3u9Im/aczgtfEcRevEEAK458xldi2RwzftXBuLuWYi8H5Z6l0efb9ohnYNTvEo9xQ5JQjlvgY8rGDgR8PTBXZ6E3WJgzZws9e/17hh9Htn+aYfCKV6lnkl5cr3JjO9QmYE1c9LCdxTTDoXTbuAUk7YxTE/CblG88rvzGsox+Jwjr5diR92OfUDfHu0GTlHqsHprH54+uKu0nSRBRNht5doAlvr3InjeWJb691LaM0deL6P849tXUpzr4StPkiNvIY6uD1LujS+Hz6FQ6apKXUeE3VaObzdwinJPyRSvUs+kHuVru3R0N0/CbvFJrWZG9srpqP5Lkzlm+7VgfHvdFI/x7Stx9cQ+AKUNx7evxGy/Fsz2a8GTsFvM9muhnFfuEzv/N41fB+oWftX7qh8tfEcx268F7QZOUew1/LtcgzZMOxROodJVCb8XirtnIaq17ErPgNXkyKubLmJo98CaOZX6OLH1D6OyAb4cPgf0Nsv1KdeX3K51O/bh5vnjXDmuu76BNXPy68D2hN8LlV8UgME9q76X4kqpSbd6FXn8LJptZ66qVQJBmkI4xYJ0wYzgw3zfoqZanGJoLSRz/LjqFFMPhTPV4OHbXD+K9eOqUxT8pArunoWM8hzdEISHZ2Fcc+fn6IYgBtXKyaBaOZnQQeeMHNu0hKmHwsmez0sp+59zxwDwKlNVkcnPYEMbty2cQO0vdQ6eBNT5qh8FP9HFdlZfi6T/O/z+be5eOYd3y65GeeTzD6qlc/ivntjHMr0jqAWePLgLQPZ8XkQ+ugdAFo88XD25D7+5wUw9FE4n/wXKMfk/1i1kkq93UK2cXD2xj6sn9vHPheNKeX5zgwmeN5YnYbeQ9POL3T0LUeerfmj1xy8Y1N7IVjmd2bMegMLlqhnJw+/f1tmatwBn9qw3ssGw7uX2OLpB54Ad3RDEk/u66RhymdnzeTH1UDjLli6jmt7Jkq83e94CuvN1rKyUffvyGSP7tcDVkzpnTCb0rxOKTt32a6YNpXiVejwJu4Vr7vx4eBbm6ol9JvX45P4ttMDfR3eSKasbRSvVMbJ36qFw5d6U7ZX5cdUp5VrkvJ38FyhvPeS2+XHVKTr5L6B4lXr4zdW9cejkv0A5ZuqhcD6qWEtxpgfVeufALhjU3qTelfrvWJkze9bTpOdwpTytQbnm6OS/gG+mraZaax866Z325r6j0Or18jlkDM+nBSLD7+M3Nxj5Ohp0G8STsFsULlftnTNskD8hKbX5vkVNMVosSPMIp1iQ5ll+8BxZP3iflpVTdpGKIbGSJt4EUKxKfSYdjODbOboH6fl9mxlSKydDDBzHkE1LcPcsxP4/5nJm11o+/WYEsZKGvcvncPXEPoauPM3VE/t4+jCMSQcjTNKQP06ZlH1sQxDerX2MZE/u38bds5Dyee/yORStXA+3vLoFQVq9PPSibmpHwdLexEoaZZ6krL968gAApeq0Mjp/q4FTFZsAvhytm3da5bNuJjbJDnJU+EPcPYtQsLQ34WF3WO7fiy9HL6RYlfosHPi5ybXKqWBpb+V6Cpb2VsrSShokNDwJu6XUs3drH66e2MeZ3RuM7I2VNGxfOAF3z0KUrt/WSB4V/hCAbLkKULp+W6Oyv50TrLTrpIMRDF2pi+jw7ZxgJh2MwCfgT+V3rKRh7bShSnsf0zvPgX1aMKRWTrbMG0vTb0cr9sZKGkrXb2vUpgsHdaBo5Xp4t/bB3bMQ384JZsu8sUzqWNnkev45f5xjG4Ko0PQrADxLVCS7fsGXXEferX3wbu2j2Hduz3rKNmjDe9ncjc51ZvcGtswby5ejFyr3AvqpCuf3bVYcwCG1cnJm9wZK129LqTq6bay1+rxaScM/545RpEJt5T5a7t9LaZtJHStT68v+RvUrX6N8DV+OXmhU9+jvqe0LJ1C6flulnFhJo9g06WAE3nqnXf57+8IJrJ02lFYDp5LVQxdOUWtwf8t2oe+XQ2rlVNpLq2+XgqW9ObNrLcWq1Cf04knl3lGcYf11h4fdUepF3UaGKbVpWbkkWT94n+UHz6lVAkGaQTjFgjTPmmMX6GWj3eoSinrUR52ehN3i2om9/Fjbg/l9da9rS9VtyYSDEUzQO45Fq9Rn0B+nGPTHKVoOnErLgVPx/LgCP9b2UB60638ZQsfRC9k2fwzrfxnC+l+GMOXLSvxY24Mfa3uYlLtosO5VdMuBU43kEWE3yeFZRPlc66t+Sh4MRspunDlE1dY+Rsca6g/8MRvPEuVwMxid1OrtlG0C+GNMTzqOXsjxzYvZv0I3vaFmx75ogSf6kdiCZbz5OmA1iwa358L+TcpxLQdO5UnYLX6s7cHNCyFG13tuz3q0envkPH+M6UkOz0JIenkOz0JKPbccOJWiVepz8/xRI3v3r9BNVWk3bI6RXAvKvOqsOfOa6FZP7EtE2E1+rO3B+l+G8NugdlRt7UPBMt4mebVAmYY6PUDV1j700jt2Tb4dTQ7PQtT6qp9yP0Tcv2107JQvKyHp21K+toJlvBm88rRR/cj55/dtQZNvRyt1oAVCNgRRtbUPWXPqQgiWadiOayf38WNtDw6vWcCrF1EUr97YqNz9K2bzx5ieNPl2NH+M6WnUrk/CbrFt/hhCNgRRtEp9qrb2UfJERejqTb53oyIeELIhiOObF6PVyzqOXqi0zaA/TrF/xWymfFlJaePKn3Vjft8WytsE+b6Tkywb9McptPq/b5w5xI+1PQjRO7E/1vZQ7jFZ/iTsFiEbgpT7x/DcGNiFvl9OOBihtJtcdsT924RsCKJu14Fsmz+GRt+MUGwAKN2gDVVb+zClo25Kl/qeUyd7oFejKqw5dkEtFgjSDIlyijWa1P+2mlAcyVYczF5HsjWXaxbOht7n07JF1aoURbdyPe4E0Pjb0Yyo7U5PvSOk1qtlWgl+H9iOolXqKw/aul0H8kn9NvScE8zT+7d5ev82DXuMYNwB3QM8oGMl5dgN04Zw/cRees4JNjpnRNhtnobd0q+mNy1TtsNjVTeun9hLjQ59FZ1sh/x54IpT+P662+Qcnw2YyrgDEYpdRavUZ+WYnjwNu8X2+WNo/O1o3PTlXz+xl6JV6qOV4MCK2Vw/sZcCn+iiY1Rp5YNbXi/GHYggR75C3P7rJO6eRRh3IIIqrXxYOaYnoRdCuHZ8Dz3nBL8r08BWVLY9uXcTtzwFlc8bpg1RbCpY2tvkWk5v+wP0o+Vq3cAVpxi44hSNvx3N8Q1BfFSpHsc3BDG8tgcbpg0xyV+wtDfHNwTRqXMnjm8I4vZfupH4bLny8zTsFsNrezC8tgc58hVS6ufc7vUMr+3B07BbfDZgKlp5Dqr+nHL9FK1SnwV9WyjnAKj5ZT92LhxPwx4j2PjLEHLkK8RnA3ROtb5qGLhCNx/9ashu3XmqNlTsjQi7zbZ5/jT+djQ1v+yn1K/croZ13m3qaqN2z+Kuc7xXjulJ429Hs6BvC6q08uGjSvXYt+QXMHO/1/yyH0jwUaV6FK1SnxObFjPuQATZcul2zTPMa3gNsuz6iX0UqVBLuT8AxTbZriqtfKjSyodxByL4pL4uaoR8HvX9LaPUuf7viLDbBHSsSI58hVjQtwXtRy3kk/pt0Brc+4Z/jzsQobSdYXr5U3GTslKTT8sW5WzofcKfv1SrHOq54Ei24mD2OrqtIk6xIE2z/OBZDvwdygJf3avT1MAt6BKDiuRWixWWDGnPjZN7GbDiNIsHt+Opfp7p2P0Rig69A9hiwLtYwMHTh3BiYxBj90dwce96/hxrHKNXJke+Qny/4hSR928z/Svdg1ou44tRCyldvw23L4awqN+7BUUAA1acJrt+Jb+MfI5Pe49m569jTGyS7fi0t85JMoe6rCqtfDixMYgvRi1UrkE+v8wXoxaSLWdeFvVrodg8qq7OsTNHj9nBeJX2Vurvo8r16Tp1tVJn6M/57NE9o3IM+ahyfaXu5TIxYz8G5WFQB2oM68Qwz6e9R1Pgk8pG51S3veH55Tb4qLIuLN2Nk3tN2iF4+hBunNzH93qHVs2SIe3Jkc8LtzwFObVZF7Lt6f1bJvVu7h5Qc/iP2XHWYVzEVZ9j9+uc6bja9qPK9SlSoRanNi82ura46rxKKx+jepjxVSU+qlyPFgOmKvUrl2l4b3zaezSl6rRk+lfvFuYa3oMy8r1ryIAVp5V+9v2KU0bnjQ/5Ho2LaTcfpXicYnP0mreOOqUK06n2u50sBYK0gnCKBWmar+f8SfMKxfmiehm1KsXIv/QKnTzd+cA5US9mBAKBAIB/Y7UsD3vCvS4l1KoU58+jF9hy5ir/6/uFWiUQODzCKRakWd68jaXwt5P4e+Yg3DK/r1anGE233uL9txkone0DtUogMEvxe9u4mr+pWixIp1x88S+vnd+yrZnlne9sTdTL15T6bhqh838kYwZntVogcGjE0JUgzXLvyTM83V1T1SEGmFAlD/uePOfCi395Gas1WUAjkkjqhBmZSOkvvYzVcuH5v+yLeM6EKnFPwUpJ3DK/j6e7K/eePFOrBAKHR4wUC9IsR6/eZuLafWwe/rValeKcjXjFjyGP+DvyNdFvtWq1QGDEXJez9IkRczbTO1lcnCnplpHJ3nkp75G6X+4NaTlxMcPa1qNa8YJqlUDg0AinWJBmWX/8b7aeucJC33ZqlUAgEAiSSM95a2lWoQRtqpZSqwQCh0ZMnxCkWR5GvSCPW1a1WCAQCATJII9bVh5GvVCLBQKHx8gpNhezzRBLehKQx5IeK+WxpMdKeSzpsVIeS3qslMeSHivlsaTHCnkePYsmapnlUFHxnUPGUh5LeqyUx5IeK+WxpMdKeSzpsVIeS3qslMeSHivlsaTHSnks6bFSHkt6rJTHkh4r5bGkx0p5LOmxUh61PrdrFh5FRRvJ1HnMYSmPJT1WymNJj5XyWNJjpTyW9FgpjyU9VspjSU8C8ljSE0ceI6fY0kwKS3oSkMeSHivlsaTHSnks6bFSHkt6rJTHkh4r5bGkxwp5Xv0XQ/mBM9RiE+I7h4ylPJb0WCmPJT1WymNJj5XyWNJjpTyW9FgpjyU9CcyzbOkytciIhJzDGnks6bFSHkt6rJTHkh4r5bGkx0p5LOmxUh61/oP3XHj1JsZIps5jDkt5LOmxUh5LeqyUx5IeK+WxpMdKeSzpsVIeS3oSkMeSnjjyiOkTAoFAIBAIBIJ0j3CKBQKBQCAQCATpHuEUCwQCgZ3RqXMntUggEAgENkY4xQKBQCAQCASCdI9wigUCgUAgEAgE6R7hFAsEAoGdsXzZcrVIIBAIBDZGOMUCgUAgEAgEgnRPopxic4GO7RVHshUHs9eRbD0ysY9aZNc4Ut0KWwU4WN06kq04mL3CVtvhSPY6uq2JcorNBTq2VxzJVhzMXkeytcawuWqRXeNIdStstR2OFH3CkerWkWzFwewVttoOR7LX0W1NlFMsEAgEAoFAIBCkRYRTLBAIBAKBQCBI9winWCAQCOwMEX1CIBAIUh7hFAsEAoFAIBAI0j3CKRYIBAKBQCAQpHuEUywQCAR2hiNFnxAIBIK0gnCKBQKBQCAQCATpnkQ5xeYCHdsrjmQrDmavI9kqNu+wHcJW2+FI9gpbbYcj2StstR2OZK+j26qRzEUvFgjSAD8s3UbxfB50b1AZALegS+osglQgyqekWpQs0mK7znU5S5+Y8mqxXWPNdk2LbeqIxNWmv+85ydX7EUzu0lStEggcGuEUC9Is5pzigHKF1NkEKcjgc7fifNAmlbTYrpn+Xs+rUm3UYrvF2u2aFtvU0YivTYVTLEirJGr6hEDg+EgipWqyFepyHD052jXZAnUZIqVsEgjSH8IpFggEAjvjVanWapFAIBAIbIxwigXpCkmSRErFZCvU5YiUsskWqMsQKWWTQJAeEU6xIF2hfkEoUsomW6EuR6SUTbZAXYZIKZsEgvSIcIoF6Qv1f36RUjbZCnU5Dp4yX9poIrPrZAvUZYiUskkgSIckyik2F9PNXnEkW3Ewex3JVnWcYsnOf870zmcis9efpNhqK9TlqH+SYmtq/iTkmuzl50zvfOrmsArqcqzx42j3QWram1gc6bngSLbiYPY6uq2JcoodaZ6RI9mKg9nrSLbWGDbXWKAeDbGzVH5+mInMXlOSbLUV6nJUKUm2pmZKwDXZSyo/P0zVGFbCTFnJTY52H6SqvYnEkZ4LjmQrDmavo9uaKKdYIHB01KMh4idlf2yFuhxH/3lR4jMTmT3/2AJ1GeInZX8EgvSIcIoF6Qv1aIgdphtnj+Fb2ZUbZ4+Z6AxTxL1bjGpTzkRu18lWqMuxo/THpIEJbqdTO9Yyu19bE7ndJ1ugLsNK6Y9JA/Gt7MrOJTOM5L6VXfGt7ErEvVsmx8SVIu7dwreyK6d2rDXRxZdO7Vhrsaw/Jg1M9HmtmgSCdIhwigXpCvVoSGr+7Fw6A98qrvwxeaCR/OSOPwGY1qsJEhLhYaH4VnE1yuNbxZWRbcoSfi+UPyYPxLeKa5xp59IZRsem5o+tUJdjTz8NO/cj/F4os/u3NdGpf66fPcKlkD2MaltOaXd129vjjy1Ql2Gtn4NrF1G7XQ+unjzIH5MHMqptOXYunUHtdj3Imb8woX+f4uTONfhWcWVU23LM7t/WqO1kuYTEmb0bAFj0U3fCw0KNyjHXL+W+fv3sEQBm9Wutsk73Ex4WysG1i1j0U3eTc5hLN84dMzlHcn8EgvSI2OZZkGYxt83zxE881dlSHb8qbmpRnNRu14ODaxeRM39hcuYvQt9ZawEY3ba80WeAXUtnsn72aMauP4eHp31smTvsr7A4t45NKvbWrnP6t+NSyB61OE5qt+tBxx+mgf5eGLRgO+UzRfC8eAsiwnRvAwzz2CPWbldbtancJwxp02+MiQyg+7hF/P5TD0p6NzDbnoMWbGdarybUbteDy8f3En4vVNGNXX+O3ctmc3DtIsauP8ez8IdM69WEQQu245ozj+7NgYqc+QszZt1Z0N9DxSvXplGX7wA4tXMtv//Ug8ATUfhVcaNNvzEANu3f8bWp2OZZkFYRI8WCdIUk2V+aezxKSR75C+ORvzBzj0cxcMF25W85dRg6jbnHo6jR+mskYOeSmYTfu/Xurafq3PZ2zbZCXU5qpfB7t7gUsofu4xYZtZs6jVl3DvSOV4eh05AknePjkb8w03o1Ua7JPV8hPPIXJjzsFpIEs/u3w6+KG6PaljcpOzWTLVCXkdx041wI62ePZsy6c3QftwiA1n3HcOXkQQClv6Fvl4qN2jH3eBTunoVo3XcMHvkLK8eNWXeOrb9PBSBH3oL4rz1LrXY9AF1/ds9XSBlrlaR3sxEkYNey2Uo+wz7vv/Yskr6NH9+7Sbl6rfCr4sYfkwexaf44QKcDOLT+fxxa/z8A/pg8yORarZEEgvSIcIoF6Qr1K8LU+tm1dAZ9qrox57t2imzOd+2IuBdK31nrkJCIfBxGxL1Q+lR149SutUhIjG5Xnj5V3dgwZzSXQ/awYc5oRrd9N+pkWIb8KDYuOXV/bIW6nNT62b18Fh75C1OhUfxTJUa3LWeSb9P8cUTcC6V1X38A+lR1o09VNyLuhXI5ZA99qrpxOWQPHvkLE3HP+FV9av/YAnUZyf3Z9vtUPPIXxt3TiwqN2jLneCQNu/THw9MLgMjHYfivPcOc45FIhvUfdsugL+lYOWUQ4fduMud4JBvmjObG+WMcWruI1n39lfLU/Q/g5oUQLh/fS6123dm1dAandq0l4l4oXUYFIun/L1wO2UOXUYHKveSetwAA/uvOcjlkDwMWbKNm627kzF+EOccj6TNzjcm1WuNHIEiPiOkTgjSLuekT40vaJqZqUvjnfAjTezfFw7MwNVt3Y8NcnTNkyMfeDfDI58Whdb/j8/MiKjZqC0Bf7+wADPh1Gx+W9VY+m6N1H38a6l/DpjYjLt2P85VsUrG3do2vLWRa9/Fnw1x/pW1O71pH0EjdSOOAX7cBML13U/zXnlVejc/9/nPC797Ef+0Zo3PZA9ZuV1u16dzvP+eymakQ5qjVtjuXj+8jIiyU1n38ObxhMZ99+5PSTnNCIgGUtvPwLGzUNruXzjTq0x6ehYkIC2XAr9tw9ciDf7vyoC+nw1DjqTHy/4YBv25jeu+m+Py8iBtnjxBx/zZ9Zqyhr3d2o/8HtiC+NhXTJwRplUSNFJsLdGyvOJKtOJi9jmSrevMOe+LDst74rz1LRFgoDbt8x5yQSN3ocUikkvrMWEOHodOo1bY7kQ/vgv6BKTO9d1Miwm4ZHSM/rNE/cG3lEF/+Tveq2RFISVvnhETiv1Y3N/Rj7wbK37XadlfaR25vuW2CRvagVtvueHgW5sOy3rz5/UsAbl9652SF373Jx1XrKZ/thZSs2+RSXzrNx94N1GKzHFr3O31nraNW2+5smOtPRFio4hDLbYpB20WEhdLXO7t+ZBmunj6k+1LrWZjWffx1o9AhkXxY1ls5Fn058jEy03vrnM3aMSH4/LyIoJE9qNT4C8Lv3lQc4qCRPfBvV8HouNTEkZ4LjmQrDmavo9uaKKfYkQaVHclWHMxeR7JVvXmHJEl2ldzzedGqjz9zv2unS8ejmPtdO/p6Z8e/XQX821Wgr3d2PixXnQad+yNJEqd2/ImHp84R8fAszJz+benrnd0oAcw+9pSIsFsmZVorlZhx00RmKdkKdTnqlBRbk5sALofsISr8gYmd/u0qsGvpTCRJYtfSmXw99jejPCVm3OTjqvW5cfYIkiQRfi+UiLBQPixX3aSc1E4lZtxUbLcm6nKskUrMuAmShIdnYWYfe8rsY0+p1bY76PuLnNB/iXHPp5ta0aqPPx6ehZV2kvRt2Nc7Ox9XrU/7IQHMPvZUN1rcrjx9vbMTfvcm4Xd1dbNhrj99vbOzasog5n7XDv925fl67G8mx8jnlPv3vYrfUaFhG2q17c7SsX6MXnMagBtnj/D9/K1EhIXqIk+YudbkpsSSlGNSC0eyFQez19FtTZRTLBA4OpKdpYiwW2yc60/RSrVx178mb+wzGIDOI3UOvYenPPdUl//y8X1Ub90NgD4z1zJqzWlmHXvKrGNPlYf212N/QwJ8Z6wxKTM1k61Ql5Pa6VnEQwBGrzmDq0ce0I8I9quWg37VchARFsrGuf6c3rWOBp37K+0rX0v2G1tx9yzE5eP7kAxGjOV89pZsgboMayU5SoSk70+H1v0OwK5ls+hXLQend60zW74hYz6vQESY7jyXj+81atePq9Zn1rGnlKhajxa9RwDwcdX6fFy1vr7/7gXgf6O+UY6R80SEheLhWVjp33LZXwwJYNSa00jArGNP+WJIAFGP7wOwIyjAxFZrJIEgPSKcYkE6Q/2vP3XT6qmD8fAsTMPO/XiivEKVVL/f2b166mBa9B5ulGfe95/Tv1oO+lfLwf9GfQP6B64sWz11sEm5qZdshbqc1E2ndq4BwN3TSy+Dmm27M+vYE6NUoVEbg+MMr0WHzmGSeProLh9XrW9Sjv0kW6AuwzpJF86wMCAx5vMKyqjsprn+1GzbXelD7YdMBSR9v5QMbILRa07j4VkYD8/CSlvKo7hFK9UyyQ/gO+NPfGf8SU39yPToNaeZdewJX49dCEBjn0HMOvaEUWtOKced2bVW6cfq9L9R3/D12IVcPr6Xm+ePmVxn8pNAkP4QTrEgXWEYcii10+6ls7h8fC+dfpqDJOlGnEpUrY+kfx7Jvw3tdvcsRPmG+h3P9I+ub6f/ycyjT5h59And9A/YbmMXKrIvBk81KTu1kq1Ql5OaKSLsFof1o4+rpw4xci/UeQ2TYR6AHHl0UQciwm5xdMMSilasZXKMvSRboC7DWunb6X/yxZCp9K/mTrexCylRtR4enoXpNnah0m6j1px+dwywaa4uJNv/RvUEICpc9ybAyE5FoPus/1P5vXvpLMZ+XknOpXM9DY4ztFEWlm/YVunHM48+URxq+bOsL1zG2+Q6k5sEgvSIcIoF6Qz5iZO66czudWwKHEOJqvUpUrYqfwbopkzIo1Nx2frF4CkGehnDPHHJ7SXZCnU5qZdWTx1CS7/RjFpzmsPrfmfvijmJtvHJh7pYxQDPwh8QERZKufotAYl5A77Q3y+mx6VesgXqMqyT5g34grGfV8TDsxAVGr4bqa/QsA0zj0bg4VmIsZ9X5Lvq7jy5fwvf6auZeTRC+T3zaARFylY1Oa85249v+YOIsFCuHN/LpsAxNDd6yyPnMz4mbpmhTi2zRRII0h8iJJsgzWIuJNuY4rnV2VKFPctnc/30IdzzeXFkfRAAXccs1D+kjfNtDtTtXgVQo40PXwyeqshrtPFRjo8Pc+dODUZffRRnmKekYi/tevNCCLN8W+DhWYifVp9S5OPaVzKJLqBmxpEI/gwYYtSWcii2uI6V7wV7wNrtaos2nT+wPVf083n7zwumSBldFIg/A4Zw9cQ+ozbDoN0+8xtNg079jHSGekNKVK1PxL2bfPXTHGb5tgAz7aRuZzkPoORT93tLlKhan29/Wa0WJ4v42lSEZBOkVYRTLEizmHeKc6mzCVKQ0Vcfx/mgTSqiXVMfa7eraNPUJ742FU6xIK0ipk8I0hXqeXMipWyyFepyHD153NxhIrPnZAvUZYiUskkgSI8YOcXmAhkbYklPAvJY0mOlPJb0WCmPJT1WymNJj5XyWNJjpTyW9FgpT0I277j9w8dqkQmW8ljSY6U8lvRYKY8lPVbKY6n9SGAeS+VY0mOlPJb0JDCPJRJyDmvksaQngXkstaElPQksx1IeS3qslMeSHivlsaTHSnkS0j7WyGNJj5XyWNJjpTyW9FgpjyU9VspjSY+V8ljSk4A8lvTEkUdMnxCkWcxNnxhdTLySTU3GXIv7lWxScdR2vXxsN4fWLKCF72jyfVTKSJcrdAePCzdmyeieeHgWolkvXbxbe8Xa7eqobZqWiK9NxfQJQVpFTJ8QpCvUrwiTm/Yun82IpkWJjnrK3uWzGVgzp1Ga/k0jLh3dbXKcPaczu9czsGZOIsJum+iSm2yFupzkpJRq0wc3L3Pl+D5ev4xGkuDm+ePsXT6biLDbPCrUmOiop1w9sZ+7V86bHJuUNL5DZdYEDDWRWyPZAsPzR0c9ZUTTouxdPhtJgktHdzP9m0ZGbXJm93olv2Fdqm1NaLLGORKbknu/7V0+26QeBtbMqdSbOq0JGMr4DpVN5JKN2lQgsHeEUyxIV6iDDiUnvXz2lD3LZlG+QRs+cM2BpC+jeJV6NPcdRfXWPty9co7fhn5JxP3bJsfbaypWqQ6Zsrqx/4+5JrrkJluhLiepKSXbtO5X/Qg4FE6hMlWRgNC/ThA8byzPIh4iAR+45uDnrdfpOW21ybFJSd4tu3J0Q1Cy7TaXbIHh+Y9vWc6rF1GUrtuSiPu3dfUfdosGXb6nue8oIsJuscy/F2f3rEcyU5dJSck9x8tnT1kwqD0LBrU30cWXSMb9FjxvLCe3/mFyPnU+OZVv1I4nYbeUelMfJxCkN4RTLEhXqP/xJyddPXWAVy+i+Lj6p0gGZXxUsRZ1v+pHm0FTaNDlewAu7N/EzQvHGVwrJ9sWjGfhoPYs1D8sb144zoyejRhcKycjmxVl24LxvHz2VCln34rZTOxYmcG1cjKxY2UuH9ut6F4+e8raaUMZXCsng2vlZOGg9oTd+NtIN7JZUbPHGp53ZLOi7FsxGwnI5JqDYlXqmn1QJjfZCnU5SU2JbVMJOLZxsVH7HNu4WDnf5WO7lbYdXCsna6cNVdp234rZDK6Vk5sXjrNvxWy2zBsLwNw+LZR7Q25T+Xzx3Svy+QztWTiovaIvVqU+ANdO7je57uQmW2B4/pBNS8hfohw58nkpW2i7exaiSa8R1P2qHz6TltHcdxTZcuazWJfbFoxncK2cSMDZPeuVujJsn7jOEXbjbxYOam+SXzLX376sysvnkTTzHa20mWHewbVystS/p9l6jO9+27ZgvFKGYb8dXCsnAFdP7FPuK/mcr6OfK3ZP7FhZ0RUqU5VMWd24eGirkR2GtggE6QnhFAvSFep//MlJN88dA6BAyQqKzFwZskxmz9IZvJ/VlYrNvuTJ/dsE9mnBk7BbNPMdRbEqddmzdAbbf5uEpH9ob5k3lkxZ3WjmO4pMWd1YNFR3nARs/20SxzYE0XZwAN2n6DYKmN+/NS+fPeX8/s0c2xBEvc798ZsbTKasbqz42RcJuH/jb7bMG0v+EuXwmxtMuQZt2DJvLPf1DvWH5Wvy6kUUofqHp7WSrVCXk9SU2DY9u2c9awMGG7XP2oDByheKFT/78upFFH5zg2k7OIBjG4I4v3+z0XkAvD6pQrEq9QCo1tqHkf16mJRt6V6R82/9dRxVW3albIPWXD2xjwOr5iEBeT8qpXOADm4xuZ7kJlsgn/vJ/ds8CbtFscp1kYBcXkXJlNWNe1fOMaljZfatmM17H2Shzlf9KFSmqkldVmz2pWLj1RP7uHpyP818R/Hk/m2W+/ciU1Y3/OYGU7/L90r7xHWOJT99zZ3LZ+k+5Q++8l/AsQ1BLB/7LRIo/e3LkfPwD75KgY/L8yTsFnk/KkWVFp115Z86gKT/DVCqVjOzdRmX7Oye9exZOoNyDdrgNzeYAh+XV/ptM99RoP+y0Mx3FNk88uiP1P3P8SxelvpdvudJ2C02zf5JOXexKnU5v2eD2TIFgvSGcIoF6QpJ0lgtPbl/m0xZ3ciUzR1J0oCkW8l64/Rh9i+fw/YFE9i7dAYApeu0Uubp1e8ygK9G/0bZ+m25sG8zAG0GTqXOl/35avRv5C9RjmMbgpAkDae2rgSgk/8i6nzZn0bdfwTgwr7NSJKGYxuCyF+iHLkLleC9D7JStHI9Xr2I4tGt67yf2RWA45uW8DD0Ko26/8jXE5chSRoyZsoKwLUT+7kSsocS1RvjOyeYbDnzIUkachcqAcCtiydNrjs5yVaoy0lqSmybqtunR4BuA4VTW1ciSRo+yObGk7BbnNm1Ftdc+fGZspKileoZnVuSwKu0Nx9VqA1AuYbtlGvSobPN0r0in6/jyPnU+bI/TXqOBODe1QvK9RX4uALXTuwzue7kJlsgn/uZfktlt9wFkCQNmbK503vmRrxb+/Ak7BZb541luk9dfhvUgfvXL5nUZdn6bRUb85coR78Fu6nzZX/ey5wN3znBdPJfhCTpzg/wOvqF2XOEnj/Ok7BblG3Qhvc+yIqrRz7ylyin1Cfoynj9MppX0dHKZ0nSULpuSwD+PrgNSdJw89wxMmV1o2ilusb1aOF+K1CiIr5zgqndsS+SBDny6TZ4ef0ymjpf9gfA3bMIdb7sT/a8hYz+5zTu+RONe/4EwL0r55QyPYuWBSD0/HGbt6m9EPUmgi33l9ptinoToTZZkEIIp9gOEB005VCPhiQnXTuxlwIfvxtRlPRlXDuxl63zx7B36XTylyiHz5SVZM/npejfy5zN5JhsOfMqnz/IlgOA0Ashei3K8cW9GzLpYAS1v+qnHHvvyjnm9W3BvL4tCNmg2ynr1l8nKdOgDU2/Hc2/z6NYFzCIoKEd2bPkFyT9+XymrOSDbG7sXTqdoKEdWT2xL6+iXxjZZWinNZKtUJeT1JTYNpWR2yeTvu2undiLBHT+eTHFqtQnZEMQQUM7svLnb3l857rRudVlqX8b5iGee0XWv/dBFiS9TeaON/xsrWQL5HPf+uskALkKFVdkeT4qReuBU5l0MAKfKSspVqU+107sZe+yGUY2qW38IJtunric9iz5hckdK7J5zk+cCF5q9hj155ANQUp/u3flHOjr/6NKdXVvY8b0ZHLHijwJu0nHkfOR9PdFmfptOL93PS+fP+X8nvWUbdCGTCp75DLiut9e/xvN6ol9mdyxInuW/ML1k/uMbJRRn8/wf05ceczZkVaJjn2Oi9N7arFdkEHjQnTsc7VYkEIkyik2F9PNXnEkW6NjnzOrYrBabBeY66COVLfqOMXqf/zJSZmyuhmdU6bpt6OZeDCCiQcj6LNgN8W8G5rkUX+OCn+ABESNKM6/z58C4KXfhhb9K2QJuBKymx9re3BAP48Q/eiXXN6QlafpPSeYSi068eT+bQp+UplRW27Q//cD+lGtvYReCOHl86dk/CALfr/uZMjK08qo20X9vEVztqpT1Ih3TkpCk61Ql6NOCbU1sW0qI7fPS33bFatSHwl4/e8LWg2cysjga7QePI1XL6I4smaB0bHqsiTgrwXfmchk5HtFArP3iuH1qGXqz9ZIUSOKG5zZesjnfy9LNqPP5/as5/fB7QnZpJu7Xcy7Ia0G6rZHfh39DMnMOWTZ5tkjlM8ng5dz7cRevp6ykj4LdtO87zij4wz/NjxHvS4DlHuh/+8H6D0nGK8y3lzcv4kPsrkxMvgaEw9GMPiPU0Z9v2StZgAcWjWPVy+iKFG9sdG5DcuU77cfa7kb3W/b5o/hSdgtRgZfwydgNVU+62Zko4y5cyb0s1qeUBzpudA4bwdipbdqsV3wVooh6k24kcyR6tbRbU2UU+xIIY0dydbnb57y/ZlWarFd8FaKIfK/x0YyR6rbGsPmGn1W/+NPTsr/cQUiwm4aySyVodaX0r9W3fjLEA6smE1Ioa7cu3KOqq19kIAKTb8EYIV/Dw6smM2u3ycB8JHe6ara2od7V85xYMVsroTsZoV/D37t24Koxw+4fmo/v/ZtwYEVs3n97wty5CsMQMYPshL1+AG/9m3Bxl9+4FnEA9zyFAS9A2Joq2vu/CbXIKds46+ayCwlW6EuR50Samti21TdPht/+QH0cglYMqwziwa149Gta7jm8gTg/SyuZs/tmjs/AHuX/MKt+rp5woZ69b2yY+F4o3tFnd/cZwnI4VnIRJaclG38VX1J1kU+f65COqf7mf7LQE6vYlw7sZcNAYPYoK+LRYN0U07kEXvDujyvn98N0KLfeCPbAR7evMyVkN0Ez9FNLZB16nN4lfEmh2chQjYEcX7Pes7vWc/C71qxZFhnnZ1FPubf51H83KIYw2p7MKy2B3/491Tm6Zdp0IZMWd3Yt3Q6OTwLGTnMapvkv83dtwB3Lp3h/J717F8+0yh/Ds9CXDuxlwMrZitf1Az18mdzsqwe795AGOZLKI70XFj0z3i0UqxabDc8j4k0+uxIdevotibKKRbYhudvn9p1B33xNkotclwM/+snM+XI68XTsFv8++ypTmapHDP6HHm96DUnmBz5CrF9/hiObwiiaisfGvUYBhKUqd+GJt+O5tXzKLbPH8Or51F0m7ySvB+WAgka9RhG1VY+HFg+k8VDO/LqeRQdRy0k74el+KTOZ4puQd8W3LtyVtHl/bAUTb4dzb0rZ1nQtwUHls+kbucBupEnCe7oX1nnLFjM9DqSk2yFupwkpsS2aZn6bWg9aJrSPveunKXJt6MpU78NSND+p/lkyuLGgr4tWDy0I2Xqt6HlgMlmz/1RpTqUqd+G6yf2cnrbH8Z5EnCvGCHbqPp8/cRe8hcvb3IdyU62QH/ubO55AXj4zyWQIO+Hpeg2eSVFq9Tn+IYgts8fAxLU7TxAqQtLdYkElZp3omiV+myfP4bNM36kaCXdwjo5j7lzdBq7mKKV67FyTE9WjulJjnyF+GbGRpDg9oXjAHSbvJJec4Kp23kAF/au58CyGUqZZeq3AaBMPd39YZIMUeskaNJ7NDnyFWLx0I6c3vYHRSsb2/xpjxHK/fE84oHh2UzL0H/+58whMmV1I0der7htSWNEx9j39ISXb1+oRYIUQuxoZwfsfriG/7Sv1GK74T2n92mY5wu12O4xt6PdkA9zq7MlmWshu1nyQ0faj1pImQa6h11aYV6vhrx6EcXAP06pVcli6j+P4twlK6lYs13tpU0L3dnOrYJN1OJkYctrs3a7qtvUVvejNVk8pD33Lp/hi5/m817mLDx7/IDVY3tSpZUPNTv25e8Dm/hr30bCrp5j4B+nyWEw5zu1+Pf5UyZ8VowqrXxoqZ+CIhNfmzryjnZaScv2hyvMjhLaE03zdsJJI8YtUxpR46mMVtLyRnqtFtsV/2lfo5W0anG6p5h3Q3LkK8Tlw1vVKofm6f3bhF09R+WWuvmK6Ym02qYAV47uIFNWNz6qXEetsntqdOjD0/u3eHjjb7XKbmjcezQfVa7Hkh86srBvCzZPH0KVVj40/GYYL548YMf8MTy9f4v2oxbahUMMcOOkLjRc2Ua66SfpgZexz3Emg1psV2TQuPBSLLZLFYRTnMqIDpqymHkjmazU/LtJvIp+xsvn7zbbcPQUfuc6H1WpT4XmnUx0yU22Ql1OcpI9tKm1r0kCXr2IolGvkWYjHiQ32QLD85du0IbS9dtw59Ipk7LtJeX+qBTtRy/k5wMR/HwgguHBN/hs4FQyZctBwdLeiqx0gzYmx6ZWinp8jyqtfChY2ttEl1Z5ERPlECOwL2LS0LRFB8L+74w0juigKYv6H39yU1HvhnSdutomjkZqJVtek61Ql5OcZMvrT2i6WbCJiSy56YvRC6nUspuJ3BrJFqjLsKX96TXV/LIfLQZONZFL6sZIQ7yIiSTWjtfwAGiJ5VnME7VYkALYvzeWxnGEDhorveV5jC70k6MjSSKlZrIV6nJEStlkC9RliJSyKa3yLCbSbsOxyWglrUkECkHKIJziVMYROqiElGa+tapHQ0RK2WQr1OWIlLLJFqjLECllU1ol+u0ztcguefk2bUxZdDQS5RSbC3RsrziKrXIHnVd5l1plVxiGiHGUusXM5h32jjTaNhsh2AJhq+346O52tchucaS6dSRbcTB7HeW58Dr2pd0/bwFeG0SkcpS6JQ3Ymiin2N5DmBjiKLa+jn0JgO/JRmqVXWHYQR2lbjGzeYdW0th1kvyvmcjsNSXFVluhLkedkmJraqaEXJO9JMn/mro5rIK6HGskR7sPUtPexOIIz4WXb5/jrMlg989bAGeNszJa7Ah1K+PotibKKRZYF7mDOgJOOKWJ1znqV4QipWyyFepyHD052jXZAnUZIqVsSotEv33uEAvbATRoiE4Dz1xHwzHujjSKI3VQJ43ooAJBSnE1v+NtiiAQ2DvRb6PsevdYQ2KlWJ6lkQXujoQdeGRpI9RXUnCsDqrleRpYbKcVKVWTrVCXI1LKJlugLkOklE1pkag3Eby184XtMlopNk08c5NG6vmFduAUzwAcYzWotXG0DhqVFr61qt8RipSyyVaoyxEpZZMtUJchUsqmNEi0g21C5SiRMqxP6vmFduAUA5L9T3q3BUntoGsDt9DCs6tJ6ll9sIlMToHDFqtPk2jEnGKRkptshbocR08fh20zkdlzsgXqMkRK2ZQWefU2Wi2ya17F/qsWpR+kT9WSFEEjmVt+l6IMQ5JmodHsAGqqlWma7Q9WJGvjjrWBWwgav4rfjgZw7dxNlk5eA8DCowFm8+TxymVwdOJx0jjTNO9XarHd8sPSbRTP50H3BpUBcAu6pM4iSAWifEqqRckiLbbrXJez9IkprxbbNdZs17TYpo5IXG36+56TXL0fweQujjP3/XXsv+x/vCFZz9yUxknjTL1crXnf+QO1Ko0zDKRZkAp+oR04xf5Irw+ieS8WNAfUyjSLNTqo2uEd1WkqZ/ZfVGcDsIpT7Kxxpq4DdVC1U5ya5PL5mcdBI9VigcAsy5ctp1PnTmqxIJ1hr/83HNEpDv/vAWefHiRGeqNW2S0uThkpn702Od/Lq1alcfyRXh1E837K+4WJmj5hLtCxNZDelIS3EkjGMWWTg61stRYv3j7DCWfls7WCief1ykVw2BIl+YzooM6SZJxw5sXbZ3Zft4Y42uYdjlS3wlbb0blLZ7XIbnGkunUkWwH+rhOjFtkt9l63L98+Q9JPDLHW89bWaCUtL2Ii7b5uDbGWrVJMSXgLEKhWWQ1ztibKKbbloHJsZB9gJGCd1Za2tNUaGHZQErl5x8GNIbTw7ErQ+FUAfFN9MKM6TVVnszpadB3U3uvWEPXmHfaOI9WtsNV2OJK9wlbbUeqAi1pkt9h73Ua+ieCtpPuSkZjnbWoSK70l6s0Tu69bQ6xpa2ykH0gjrOYXqjFna6KcYlsivSmD9KotUuyPalWaxLCDJpbarbyNRoGDw5YwdvkQAB7cfmy0wE52nK1BrPSWqJgItVggEAgEArsmOib1wnwlh+hYx7TbGuj8wnagHa5W2Qy7cYrRjxZrnLYC+9SqNIetOqgtp08ARMekTpgUgSA9sXzZcrVIIBAkg1fal2qRQ/Aq1jHtthaxkX2Q2JxifqFdOcVI7xMb1TdFvxWkFtbsoGsDt9Cz+mAehD6Kc6T46SPrOOHpvYMKBAKBwLF4o31NrJX2BLh04ho9qw9Wi22GVtLyRvtaLU4/SO8jPeuPFDtMrbEJ9uUUA9LL1khvM4E0Q61KM1irg25fpvvmFDR+FU0612Ph0QB+04dja9a1AQBDA/0IDltCySrFjI5NKrFSbPruoAKBQCBwKKLfPieDxjrzsyMePOXB7cdGjvHBjSHKuh7DQam1gVsMjkwazhpnotPAHgHJQfuyFWg/SBG/0O6cYgCtsujuoVqVJkhuB5U373hw+zG/HQ0gOGwJ7fyaA7Bu/jbyeuWibptqRsf0rD6YgxtDjGRJIYNThnTfQQUCWyPCsQkE1iM6xnhhe1KQF7hP8dNFQzB8K/tXyFXO7L9IC8+uoF/nY/hcTg5aSRLTFgHt05TxC+3SKZZiSqL99yvQpsxweUqT3A7azq+50ukMYw+vDdzC1iV7GDCjl1F+9B3YGkhIvLDRfGiBQCAQCKzNs5gnyX47W7uVt/Imdmign/K3z4gOfOJdXJEHhy0xOi65xEoxYoG73i+U/u2EZGO/MFFOsbmYbrZCG9kX2APsVKsSREramljMddCkxk0MHLbYaP7w0EA/SlYppkyXmOIXqHx73b36kOroxPNWG0Or/D5qsd0i4hTbDmGr7XAke4WttkPEKbYOL95GoZW0yuekPm/zeOWiQt3SLJ28hiNbTgJQo7ntN4fyKzZOLbJbbHkfxEb2QcPeJPuFaszZahc72mmfR6B9buq8OGXegpPrSnA6pVY5NEcjthP5JlwtdhhcM7pT06OZWmx3iB3tBI6K2NFOgB3/33C0He12PVzNG+1/anGikHeQNUezrg3YumSPWgxW2k3Wxek9Ps3TXi1Ow8TtF2r0fqHGRn5hokaKUxrty+ZIb3OAZPuNKVKSlw4+J/fV22i1SCAQCAQCuyNWektMEvcEMMRw2mKFuqWNwp8aTp+Qw6D+djSAvF65rBL56a32jcnb5fSK9LI5mlh3kHTTV6yNXTvFGC26u6tWOSTW6qCpSYzooAKBQCBwAKLfPicDGdTiRDOq01STxeqXTlyjhWdXwsN0O6555M1hpF94NMAqkZ8yOLmIBe4GxD71A36yiV9o906xFFMM7ctv0syiO2t10NTEWUSgEAhsipg6IRBYh+i3UWbnjiaWPAVzKWt0zuy/yIPbjxnaZhxDA/2UaRU5crupD7MKkiQR/Tb5I85pBSmmGNp/beMX2r1TDKCN6oMkHQW2qlUOh7U6qBr5G6u8qM6mSLrrEAgEAoHAnnn25ilvtcl/s+k3sRtDA/1Av3NsXq9cNOvagNqtvGnWtQF5vXIle+5wXMRKb3n2RjcaLdChm0VwzOp+oUM4xQDaZ/1s8q0gpbFWB1Wzf/0x0M9jUrM2cAuBwxarxUnmrRRD1BsRIkYgEAgE9s3zt5FoiVWLk8TSyWt084kL56Z8ndI8vPNYCYVavk5pdXarISHxLCZSLU73aKP6WT1Em11Hn1DjnHMQuNRA4zRCrXIYQp7s4sl/yQs+fXBjiBJAPDFUqFuascuHqMVJIkfGXFTzaKwW2xX2Fn1CIEgo0xsUYcCem2qxIB0iok8kjz2P1vI69l+1ONHI0Sd+OxpA4PDF5CmYC7+J3ehZfbCykVYer1xG+aw5cvy+8wc0yN1OLU6jJMIvzDUYjUsN0AxXq5KEQznFmgw3cc7TCrgGFFGrHQJrdVBDZCd5yvqfrDKpPyG875yJBrk/V4vtCntyigWCuDAXdkuEZBPYM47kFG99sAxruDmjOk2lbI2StPNrrmzpXLZGSYLGr6JZ1wb4TewG+r0Dti7ZY/XnsUajoVnezmpxGiX1/EKj6ROW5rpa0pOAPJb0AJmqmf82JL0tghTdF7TDLJ7Hkh4r5bGkR5XnP+0rI52MpWDi8emn+AVSoW5pDvS5bSR/qN+G0nDqRHznIQF69Hlex5q/DhlL9WJJj5XyJGTzDkvnIAF5LOmxUh5LeqyUx5IeK+WxpMdKeSzpsVIeS3oSmMcSCTmHNfJY0mOlPJb0WCmPJT1WymNJj5XyWNJjpTyW9FgpjyU9iczz4m0UGTQuanWCn3OGjF0+RNm2eezyIYxdPoTHQRkJDluiOMTo5x4Hhy2hZJViJucwR0LzOOPMizjW8iSmTuLDUh5LeqyUx5IeAz9RelsErd4vNCQh5zCXx6FGimUy5GsNTpOB1mqVXfPibRTHInYQo32jViWZUZ2mcmb/RbXYiLxeuVhoZq5xcsjg5EJ1jyZkzWCb1bbWQIwUCxwBcyPFAoE94ygjxQ9f3+FC5DFiJOs9c1MLF6eMlHGrRp73C6pVaZAk+IV5W4PzFKCVWpUoHGahnSGxkX1Ba535IynJy7fPwYpfQQKH6eY15dVvPSkHEpfTlPU/ATBgRi/1oclHcvxNSAQCgUCQdnke8xQt77Z3dmRipViiRASKONE+6wdS8v1Ch3SKpVcNkWKKgtZfrbJrrNlBR3WaysM7j5XXNmf2X1RCsslpaBvb7ZeuJVZEoBAIBAKB3fIs5mma2WhKK8XyPOapWizQo/23AdKbj0Aao1YlCod0igG0kX7g9DNwVa2yW6zVQdcGbuHM/ot0/O7da4L4RoptgVbS8kx0UIHAJixftlwtEggEiST67TO1yKrI+wNcOnFNrbIJL2PF29n40Eb6gWZssvxCh3WKpbcF0b74Hin2R7XKbrFWB5X3YJdXtj64/TjFR4qRp4MIBAKBQGCHvHpr3UhPakpWKUaFuqUZ2mYcD28/VqutjrUjV6U1pLcF0UYPSNb0Wod1igG0z74B6RpIf6pVdoktOqjcEX1GdEjRkWLiiaQhEAgEAkFq8m9sNE4a67o4BzeGmAw+yQvdv6k+2ETXwso7zDppnPk3NlotFhigjeqBJF0B1qhVCcK6d0wqoI3qi2SFydW2xhYdFODaOV2A/xrNUz7CggYn0UEFAhsgYhQLBMkjOuYZTlZ2cXavPmR2qqI6VahbWslnTTRoiI6xzhvntIw2MumL7qx7x6QC0uu68KY0aG07KppcbNFB0ccobta1gdHOOT3131jl6RM5ctsmbJqTxkl0UIFAIBDYHS/eRiFprBfu6dKJayZrecwROGxxgvIlBUnS8vyt2O7ZEtLrOkj/lQYp8X5horw0c4GO7YHYyD7gNBX4W5HZm62WOmhCAnibI1gVOBxg4dEAo2+t1txqEgNbY7Vv7X41bEI277An7O2+jQ9hq+1wJHuFrbbDkey1N1ufxTzhrTZGLYYkPm9LVilGs64NGNpmnMkUCcP08M5jKtQtzfTvF6hPkWRke99Kb+0+6pO93AexkX6AsV+oxpytiXKKU32fj7iIzYf2+fegfbfozt5sja+DAviebKQW2S2yrVq0RMXYdwetMWyuWmTX2Nt9Gx/CVtuxbOkytchucaS6dSRbcTB77c3WFzHmd38jGc9bebe6CnVLA/Db0QDlb3kQSt7tzpobZhna+9JKC/Zthd3cB7H59IvujHe6M8ScrYlyiu0Z7fOvkbR3gBVqlV0QXwd1ZKJFBAqBQCAQ2BmvUmC9y5EtJ9Ui1gZuoWf1wWqx1XglIlAkGO2zbkja28AfalWcpBmnGP2iO6QRQKxaleqkRAftWX0wgcMWq8U25VXsS7VIIBAIBIJUQxe6zPTVuLV4EPoInxEdaOfXXJHJ0yeCxq/iwe3HjOo01egY6yGJ0GyJQBsl74CcML9QI0mjTcePU5QDaJ+XStQe1/Hh7DEaXLzQONvqhkw8r2P/Zf/jjVbZuCM+Dm4MYYpfoElntSVOGmfq5WrN+84fqFWpzg9Lt1E8nwfdG6R8ZA6BIKHk8vmZx0Ej1WKBwG75fc9Jrt6PYHKXpmqVXfDkzUNOPz1AjPaNWpVsLp24xtA24xga6EftVt6M6jSVM/svWj3SRFy4OGWkYo46uGfMo1YlAnvfDdjafqE/ZPRC4zRFrTJBE/usTyo7xTqsdfE4h5MhT1PQHAHKqbWpgq06aGJjIMqd2JpYp4PaBuEUCxwB4RQLHA17d4pvvbzK1edneSvFvY4nqchOMPp5xCntFGfQZKBEtvJ4ZS6hViUCjfV8LhtiNRudw8mQtxlw2KJfqIm5e8kunGJr4pR1GU5ZToPzdrUqVbBFB5VHhX87GhBvdImE5ksqzpoMFM9WjsKZP1arUh3hFAscAeEUCxwNe3eKz0cdIexVqNmFVMnh4MYQlk5ew8KjAYzqNJUHoY/IWzh3ijrFAJ4fFKGcWw21OBFoeHvvklqYptFkW45z5lMW/cIEzynuO3wsAfMWqcWJZtWmrTTv3EsttiraF52RpAggZefXxsWzmAhise7UiaWT15jEJ1Zz6cQ1s3GMrUmsHYeIefwsmlyuWdRigcDuWb5suVokENgNuVyz8viZ7dfJJJXnMVFWd4h7Vh/MFL9ABszQ+S9jlw+hSed6yqixOjSbnA5uDFGdKfm8iBGxihOL9LwTSE+A+L+8JNgpDr1zjx/HB9B3+FgAjpw8g0uBkmbTqk1b1Ycr5M+bh50HDuNSoCShd+6q1VbDJV8ZJO0I4LValeIkpIMmNm7igBm92Lpkj0kHNExD24zDZ0QHti7Zw6UT19SnSDJqW6PtNETMw6gXjP2ysVps15iLm2ivCFsFOFjdOpKt2LG9ud2y8DDqhZHMnmy1tLBd/QxLCHL8/5JViimydn7NjfYEMJesMWVRbe+/b+O/vtQkU7V2apHdEBvppw/GoPMLzd2zCXaKtyxbwLddv+TXpSsByJc7JwD71y0j5u4lYu5e4tM6NSniVYAOLZupjjZl2dwAChcsAEDxmo2tPnr8+swQ+K82UmzcMepSCksdlCTETSxZpRjBYUsYGugHgM+IDsrfQwP9lA4pd1rDjpxc1Lbaawd9FBXN2mMX1GK7xtKXJ3tC2GodBreqrRY5FPZct2ocyVbs2N48bll4FGX8f99ebI2R3hCrjf/NrPoZZu+o7dUSS4xk3TVK1uLVsbVqkd0g/eeN9F9tfTQK8/dsgp1igDkTRhFz13geyrFTZ5UR4p0HDhvpzI0m123bGYDOfQYrso8KebHzwGGrTM8wJDayLxqnIMA0lmBKkZAOag22L9unFvHw9mNaeHa16iixOey1gz6KekFuMX1CYOcMbV1HLaJT505qkUBgN+R2y8Ij1UixvRAd8wxnTQa1OE3hRAaiY+zzDa29E/u0D2h+j9MvTJBTXLxmYyPH1pzzOnH4ID6tU9NIVqNyBWUUWU771+l2alo2N0CRbVm2gJi7lxjs28Po+GSjzY72eX+k2Hc73aU0tu6g4WFPyOuVy2j3nCl+gbTw7Mo3+gDiQ9uM4+HtxwZHWRcnnO2ug15/EEHWTO+T0cV2dS8QCATpkYwZMpA10/tcv29/60mi3z6zZYhi0EegsMVc4YQj2e20RbtHm12/A7L5WQQJjj4ReucuxWo0ZuLwQRTwzEvnPvHv2NK7S0fmTBilFnPk5Bnqtu3MsrkBCZpmYQ2cc38NGb5Bo+mpVtmcu//e4PLz01YPxybTs/pg8hbOzdjlQ5RIE7YIvRYfGZxc+DhrRQpmLqpWpRorD59n94Ub/OZnv/Ob0jqT5wdx8NR5zl++yqPH4Wq1QJAgcnp4ULZkcWpXKssw3+5qtSCV+CZwLQ3LfETHmmXVqlTlr2cnuPPyOhJatcpqyOFQfUZ0ACBo/CqadW2A38Ruqpy2QYOGgpk/4hPXpD7n01/0CTXOuX3QuPQEjAdjE+wU9x0+ll+XruTakR3cfxRO3badmTh8EAuXr+bq4R2s2rSVQyGnAPh16Ur2r1tG9wHDuHp4h9F5zDnFqzZtVZzs/euWUaNyBaNjkovmvdM4uQ9C43QDyKpW2xRbdlDZCUY/jxj9KHFKO8UABT74iDJu1dTiVKP73DU0LleUDjXs6x92euDwqbN8M3wCr50zEuWcBecsbjhnEtNYEsP0BkUYsOemWpwuiX0VTWx0FFnePCeT9g3/mzySGhXjjzUqsD2rjpxnx7nr/N7nc7UqVTkasYPIN7Z7M2oYlk1mbeAWgsavYsr6n6y6fic+smfMSXWPJmpxAhFOcVx+YYKmT4TeuasssCtWo7EyLxjg5u27uBQoSec+g5U86BfiyTpLc4o79xlM7y4d+bROTY6dOqucw1pI/1WE142VydUpyfOYSJs4xOgd4Cnrf2JooB9T/AL5K+SqOkuK8eJtlFqUarzVatl1/jqNytjPyHV64cjpc9T/qhcPM7jxb54SZMyZXzjEgmThnCkLGXPm541nScLfy0Hdjt9w2AbPCUHiaFSmKLvOX+et1jbPt6Ty79vnapFV2b36EOhHi+X1Oh9X0j1rIh48VdbytPDsytrALUbHWpOXNr7OtI70X0X4r4mJX5igkeIjJ89w78FDqpQrTbEajVk2N4DOfQYzcfgghk2YxrUjO1i7ZSe37oaBfqRYvSAP/WjzroNHTEaPUwSnF7odTTSbgOpqrc3Y/fBP/tNaNyyc/K3U8HXNw9uPlTnEcVGhbmnGLh+iFluFjE7v0ShPe7U4Vdh25iqL9pxkzZB3X94EKcPHjb/g2Qe5eOtmfzscOhJipDhu3jy6Q86Yp1zfZb+r3NMLn09dRo8GlWlaobhalSrESrHsePiH2agC1kDe4rlC3dIASoxic+T1ykX5OqVtNqVCo9HQOM+XOGuc1aoEIEaKQfYLm4Nmo+IXJmikuEblCnRo2Yy1W3byaZ2a5M9r/MArVqMxC5evJvTOPSO5IQHzFvHr0pVsX/EbqCJTpAjarMRG9Y9zcrUtiJVieSP9pxYnGznMmmFny+OVyyQ+ojrZyiEGeKN9Q6wUqxanCptPXaZRWTFKnNJMnh/E0xgn4RBbAeEQx03G3AWJ+A9+nqN7lghSj0Zli7L51GW1ONV4+fYZGTQuarHVWDlzIwAPQh8xdvkQmnVtQIW6pZVn7G/6KRU+Izqw8GiAzRxiAGcy8FIstkse2qzEPvvOyC9MkFMs8+P4AOZMGMm9Bw8BGOzbQ4kgMXbod+w8cNhoCoXMqk1bGTZhGvvXLVNiE8uRKQBcbLCRh7kA0tLLL5BiY0Grm4draxLTQdXBue0Zc7Zm0NhHBz129TYh1+7Q+9OqEEdwbnvGkexV23rg1Hn++8DNSGYv/F3HeluspwSOZG9q2Cpl82DficRPoVDfs/aOvdvb+9OqhFy7w7Grt+3C1hdvn5GQ0BPmnmGWOLgxhDwFdTvDNulcD4BPvIsbjRY/faSbRihPp7AW5uzVaDT667UvzPle9kqmau2Qotvp/ELmQWKcYpcCJfmwUEGK1WjM3bAHJtMjOrRsZhR6TUZeRLdsbgD5cuc0mWM8cfggingVoFgN6+48FlcAaW1kX9CMBGy/TWJCOyhmgnPbM3HZag8ddOaWo3z/2bvQgLZ6jWYrHMleta3nL13FOYt9OsWlDiTsy2lC8C5WkJBJfdTiePEuVpAl/XUr1RNCYu1d0r8DEzsbL7pJTHnJIbG2WgPnLG5cvv6PWmwR9T1r7ziCvd+1qMHMLUftwtbnMU+JlSzvCxDXMyw+lk5eYzLyW6xcEdBPqwC4fOo66DfXsibm7I2VYnn25olanOrE5XvZI7Kt2si+IP0ERCbMKS5eU+ewXj28Q5lHrHZu1Uk+ZsnqDRTxKkDnPoMpVqMxRbwKGDnPg317MHbod6B3oG2N9KYs0qtWkAKxixPaQZPDwY0hjOo0VS1Ocd5KMUS9Sd2YlVtPXyHieTRd61g3eokgYTwOD0+zi+quzn43X390+4bs++sfejaqYpRH7ZQaEnLtDuidY0MeB400K5veQPewNSzjcdBIo6SmbdVP1CJCJvWhZ6MqPA4aaWKvI+OcKQsREan7/0ago1vdikQ8f8nW01fUqhTneUwkWhtN4zOMNiGTx0s3ciw7w+ePXKJZ1waqXLZBK8Xy4q3tB/fSAzq/sDVohyVsoV2aQ/MK57zN0DitAkx3k7IWx5/sJuK/B2qxVQkctpitS/aQ1ysXP/8xVFlsFxy2RJ3V5uTImJtqHp+qxSnGp2N+o3/zmrSoVEKtEqQALkUrkb1mK7XYYenZqArjv9J9uW85cTF+TXQhB8OePqNcoXxkz5KJIrlzKPkjo1+x7vhfbDxxiU3DTOcSbj97japFC5A9SyZFlsvnZyZ2bsKwZdtB71hvPHGJDgUyMGDPTbb91J2KH3oqeeNiSf8OHLocysJdJ0xkF28/xK9JNbrOWmVUlqMTeXgjMdd1YUAFqcvmk5eZvfUIO0d/o1alKHseruW19l+12Kq08OyKz4gOtPNrrnyWF733rD6YLj98nmIhUd93/oAGuZMyXUEstDNB84oM+ZqnU6cY0GRej7NrMDgdVausRkp1UMPYiHIUipQMJC7znnMmGuZOnZiV3/2+GWeNhl98WqhVghQirTnFaiZ2boJnDlfFuaz3yYcs2nPSyBGNjyX9O9CkfDFGrNgR5zFL+neg66xVTG9QhGat23L8+l0Ctx8j5Nodk9HhRXt025T2aFDZSG7IiBU7uHj7oeKkn/4njOxZMuH941x1VodDOMX2xcCgYGIliZndP1OrUoytD5bZfBqH2imWN9Dq+F0rhrYZx29HA5QRZFuj0WholjcpUZaEU2wOTZYNCZs+kRaRXrZBepsRtDPVKqvxn/RKLbIqBzeGkNcrF0PbjCNw2GLQv87J65WLh3d0wctHdZpKC8+u9LQQrs0a/Bdr2+uNi182H+JueJRwiAVWZdtP3Y2mK7St+gldZ60iZFIfyhXKh/ePc+nRoDLbfjLdZU2eEiFPXZAd2lw+P9OjQWVl2oR3sYLKtIYl/TsQuP0YACWq1aV4P+PXtbl8flbSzUdPGbZsO8OWbSeXz89sP3uNESt2GOXZflY3zxH9KHUun59pOu73NOEQC+yPX3xa6P4Pb9bF8U1pot8+w5kManGKcfnUdSrULU0er1xKrGJ5rrGtcNZkENs9WxEpunXyR4rlhXTXjuxQIkuo6Tt8LLW8K6XYts4JRZPxb5xydkejuQFY95td9NtnHAnfxlvJdiuze1YfzIPbj/EZ0YGg8avUaoW8Xrl4cPuxzadUZNBkoEbOZmTJ4KpW2Yy1IX8xfs1etozwIW/2lN2tUGBMWh8pvjp7MNmzZDIZ6Z3YuYkyWnv6nzCajvtdGRW++eip4oSqR4rlecqRL1/x/e+bmdH9M2U6hjxVQj7GHIv2nFSmQiR0+oR3sYLK/GZHR4wU2x8PIl/QfEIQP33egLZVS6nVNuXh67tciDpKjPaNWmVV5C2eZSrULR1vvGJb7nLn4vQeZdyqked9875X3Nh+pFgOpDDY13gbZZkjJ88wYeZ8tixboFalKglyiuUtng3p3aUjcyaMUnRFvAqY3ZQj9M7dREWWsMU2z/HhnH06vP8WjfPvalWysHUHNdziecr6nwBMXt2M6jSVB6GPzC4QsAUZNC6UzV4jCR00aWw8cYlvf13HuqFdqFbcS60WpDBp1Sn2LlbQ7BxhQ2RnWMbQSd32U3fCn7+k66xVXJ09mJuPnhrlNUSeUyw7seacXRlDB3dJ/w4Uy+dB9sy6+cryvGX19InI6Ffxlu9ICKfYPjl29Tbtpi5jXq82tKqSQvsQANdenOdm9CWbL263JzI4uVAkc0mKZi2jVlkg+U7xkZNnjHY3lom5e8lIF5dP17xzL3YeOKwWm0X2N1OCRE2fuHZkB/vXLQPgyzYtjLZ/NtzSWY48AdB3+M9MHD5IiTaxbK7OQZPDtk0cPoiJwwcp5zdXebYkNqovGs0uYLdalSyexzxFK9lu+8spfoE069qAvF65KFmlmPJN9Nq5d0H/H4Q+onwd3c47KUGsFMuzmJQJETMz+AijV+7iz8GdhUMssDmn/wkzmppgmBbtOcm643+pD+HibV08d4BDl0NBPyosO6QTOzcxiljhXawg5QrlI+TaHZ78fZIl/TuQM1tm2lb9xCTyxOOgkSzu156JnZvwOGgkTcoX49r9CIr3C6B4vwBl+oRsgzx9oni/gDThEAvsl2rFvVg9uBOjVu5k1pYjarXNSIloT/bGW23qR32S/bsiXgXo3aUjABNmzlf0ddt2VnzDIyfPgH6GwY1bt03C+C6bG0DvLh0p4lWAa0d0g6wThw9KMYeYxDrFzYdMM/o8bX4Q6B1cuVIMR4ybd+7FjVu3adf8U1wKlKTv8LGMmqKbw9u8cy8AFi5fzcLlq0HvQFuLBAeQllzQRvWz+k53ie2g5oJzx8XawC0MDfRTi6lQtzR/hVwF/YK7B7cf84m39bffjMtWCW2KxE0cGBTM3r9uEDz8a2p+XEitNsIeAsonBkey15FsTe4GExU/9DRxSuVkbqFbzmyZCbl2h4mdmxD+/KUyj7hI7hzKceUK5aNcoXzKMYv7tVfKQR/lAiD8+UtaTlysOOby/OGATQeN5hTLjrdM1aKmb2xsEZYtuXWbkjjSPYuD2Wtoa80Shdgywoc9F28wMCjYKJ+teBGj2zgjIcT1DLNX4rM3+u1ztShVadh/PDsPHGbZ3ABi7l5SBj3lEWN5yu3v0yfSvHMvXAqUJGDeItCH8P116Upu3r6r+IPDJkyz+uZuMub8xEQ5xVum6i4O4Nips+w6eITeXToSMG8RqzZt5ebtu/w+fSLot3XeeeAwv0+fyLT5QRTxKkChArrQQteO7GDngcPsX7eMnp3a81EhL2LuXrLq3JLEBJDW/vsZ0ltXJK314v0mpoMSR3DuuGjn19xsyJc8BXNx9oBubpM8YmwuX3KJz9aXsbbroHsv/kOrSUuIlSQ2/tiN/B6W5y7beiWytXEkex3J1uRuMGFppDguyhXKp5vL++NccukXyMnHnbt132jUVh7hzaWfT3zz0VNFt2lYN8VhblK+mBIqTs2S/h0Upzvy5StlekWT8sV4HDSS8V81Noq5bA2SW7cpiSPdsziYvWpb87u7svHHbrzVamk1aQl7LyZ+s5XE8Do24ZGe4nuG2SPx2fs69qValKrcPXOQicMHKQOgwyZMo3eXjtSoXIHQO3fp3GewMqIsO8/yjsfop0rIPuK1IzuIuXspzvVqycWcn5igOcUB8xYxbMK7UeIiXgW4efsu+9ctI1/unMqcYXPzPuS5JfvXLaNu284smxvAoZBThN65x5ZlC3ApUJJlcwNSfRGexuUqzrm/Aq4DOuc9OWy7vxwttps+gT5G8dkDF5U5w3LM4uCwJawN3ML5I5cYu3yI+jCb4qRxomneTmpxsjgbep8ZwYf55+ETvm9Rk8+rpdyUEEHCSc9zitWL7+Q5vt4/zlVGftWc/idMmWuMPtpF03G/8zhoJC0nLmZ0+4agHykO3H6M0e0bKov45FFhuUz13GPvYgWNFtfJf6clxJxix2HNsYvMCD7MR3k9+K55DcoXfveGxBq8in3JwfDNvNU6zlsLa5HByYXaOT8jk3NmtSoekj+nWL1eTPYLZT/QcM6wPD3CkOI1G9Oodg0AQu/cY/h331K3bWeuHdnBtPlBio+Y0iRopHjfkeN8WqcmRbwKMHH4IK4e1nnv6vm/vy5daTLMLU+2PnbqLMvmBtC5z2C+bNOCG7duKw5x5z6DjeYhpwZSTHG00d2QrLDT3avYlzg5OavFNid3AQ/QT53YvmwfZWuk3CIHGQ1OvLLSN9fDV24xICiYTjNWUr24F4fH+wqHWJDihFy7Qy6fnzn9TxiL9pw0GSFuOXGxkUPsXawghy6HKlEnDEeVDUeKm4773chRbTrud67OHkwun58Z3b4hY1bv5tyt+4o+MYxu3zDNOcECx+XzaqU5PN6XasUK0mnGSgYGBXP4yi11tiTzIiYKDdafavIiMpqOJX1ZG7gF9JEnWnh25dTe80b55NCnqYEGp0S/mbYGJ87p3krLc4Blv1A9MIp+YNWQvsPHcvP2XXYdPMKcCaPYeeAwf6wPZuLwQRSr0ZhCBTwVH1Geh5xSJMgpLlwwPzdu3Qb9ULg8P7h5514Uq9FYmTtSxKsAxWo0VhbbuRQoSREv3bD3YN8edGjZjN5dOtJ9wDBl3vGhkFPsX7eMm7fvpvjFq9FG9UOjOQxS8rabtlUHTShPH0Xx4PZjajTXzXUc1WmqEsfY1mjQJLmDvn4Tw5bTV/hu0SY+7j+Nn1fvwTNHNs5M7U/vT6uqswsENsW7WEGjucPnbt032g1Ons+7uF97HgeNZEn/DgDM6P6ZEnLN8PjHqjnFhkmOa3z8+l28ixWk6bjf8WtSzai88Ocv8S5WkGL5PBj/VWMu3n5otNDO8LPhwr/SXnnImS0xo0gCgW3o/WlVzkztT74c2fh59R5KfvcL3/++mS2nr/D6TdJHeXWxei2+9E40O/84QPSzl8qzVCag73xeREYbyVILSYpNlVjF+fPmAf0or2GghVWbtuJSQDcgJ88plv1G2TfcdVC3AHPs0O9AP9/416UrqVapPL27dGTYhGlcPbyDIl4F+GN9ysxJl0nQ9Ak5zvCoKTP5qNC7lf5xhdP4tE5Ndh44TBGvAvTs1J5hE6aZHT6XkSdef1qnZqoMlxui+WAbzm5LwemsWpVgbkZf4kb0BWJs/CpHni4hk1cfiu3Bbd3GHWpSYpc7J40zRbOU5qOs8Y/ovnj1H19N/4M3b2OJfv2GyJevePLiX+qUKsynZYvRqOxHeOXMrj5MYMek1ekTqcH0BkUYsOddJBmBKWL6hONzOzySneeus+vCdQ78HYp71kxkz5yJLO+/R8YMzmwe/rX6ELOciTzEg1fWG3mW6Vl9MFncMjN96xhQxSiuULe0Mj1xVKepnNl/UdkL4NTe8/z601Ie3H5MFtfMfNG3hbIDni3Il6kQ5bPXUovjIfnTJ+Q4w/VqVGXYhGlMHD6IfUeOx+kXYuAbyjMELE2dlZ3r+PbBsDYJGilWs2XZArYsW6BMlpYnQ8vh1oZ/9y0xdy8ZxS2Wvz2YS3Ll7DxwONVHi6V/myLF5AatbsFgUoiKeWJzhxjAb2I3gsOWKGnh0QAWHg0wkhkmWzvEAFoplqgEhGXLmuk9g0+S0bd89YINgUAgEKQ9NBqNKsKGRp90vHj1n4EubqKT+HYyPuQITubCmtZqWZUz+y+ybdk+tYqHtx/j32UaWdwyM2X9TzTr1oCg8auUKRi2IKlvZ61Ju+afsmXZAmXBnGEoXvTTLLYsW0DM3UtUKfeuTtX+oGGaOHwQRbwKKJHOUoIkOcUB8xYleg5wh5bNlAqKuXtJcajlz7JePU85NdBG9QXNKCBp3zxt0UEdiZcJDBGzefjX7BjVgyMT/Lg0cxC35/9At7oV+fvuI5qOC6Lx2EUEbDzI6zcJD20nEAgEAvvl9Zu3BGw8SOOxi2g8dhEXbz+gW92K3J7/A5dmDuTIBF92jOrB5uFfqwZP4uaV1jrrWAx5+kj3HM/p6a5W4TehG1lcM7N4wmpCLxnvEHlki26twadf1QWgUj3dxhrnjyRvZDY+bHH9ieX+o3BcCpTk2KnEvWU39Atlh1qekjvYtwdXD+8wO0/ZVmiWLV0mAZQqlJfKX/bl1bG1/HXrAX/feoAsn79gIaF37jF11lwuXtBvZ/hfNIcO7OfXpSvZF7yesEhdo5QuU5rIfy5So3IFk/N8Uigvmaq14+Qfc0zkgNn8ccmtcZ64rveTQnlxdpvHxRtuXPxLF+e3dJnSlCmju7kvXLig1MO6detYu04X1sNQ/n5hifcL60Y8Dw27SelGH5nIX4dqeB2q+1Z8cdcNak0sYiKX88+rvAuf1Z+ayOPKH5fcGucJar8T35ONTORy/v9CnXilD5ma2HozzD+gVw8q1a4PwJvMOfBp09Qkv6XzaDQazp8/byKPK39ccmucp2zZskiSZCKPK785uaXrBWjXth1t27Y1kSfmPEm53i++6UvrutUA2H4zkh2hkfxdJ4aBd3LRpIhuKowsB2hcOHuC5L8UfEypAy4m8rjym5N/qI2g5T7dl7W48m+ql41/nHSLVZN6Hmtcr7XOk9brrY7zI+V+S859q5an9X5qTm6N8ySm3u7Hvke1qpWoWaJQoq6XOOptx8OVRP/z1urP03Xr1uHdtSQlqxQzOc/N8KsMaf0zPf16ULe67jn1fmGJLduCCRq/irZt2ip2rlu3jnXr1xEctsTkPJaepwmRn995jSlLdFM8ElZv6yiZYxyo/KINuw/yx7jvTeRx+V3nz5xi6vQZACbXW/njwgz27WH2PCU7fE/p3FmU/LL8yMkzzFq6zkRuzp74/DeAL3+aQeuGtU3klq7X4pxiw+361CHX4tr+GVDyqcO5WcIe5hXLOOdticZpGmhaqlXxsuPhynQZGkbGWeNMk7xfqcVJ5mzofWZuOcKNBxEiJJsdI+YUp216Nqpidrvp1ELMKXYc5JBsH+Zx5/sWNa0eku3g4828eGvdN7Tblu1j7g9BTFn/k7JjrDynWJ47vGTyGlbP2qQcI4dDDRq/Cv+lg6hUvywAl05cI1OW9ylcUreg1tpkzeBG7VyfqcXxkPw5xcVrNubmbV20McM1Y+a2f+7dpSO/Ll2p5FOHc0sIKTWv2KJTnJ7RZNqFc/YF4GS6hWt82KKDOhJZMrhSJ1fivkgkhL0X/2HmliN45XRjVg/rn1+QPKzhFG/7qbtJlIf9Y3tROHcOagyfx70ntl1lPbFzE24+ehqn89e6Sim+b1GDwrlzkCmjC5HRr7j56Ck9561Nsm2Pg0aaxDlOLj0bVaFI7hxG9ZgY1Me3rlKKmT0+S3Yb9GxUhR4NKivh6pKDcIodg+9+38ytx5F817wG9Ut/qFZbhbORh7hv5YV2l05cY2ibcQwN9FM2wVI7xS8ioxnY3F9Z3B4ctoSHtx/zTfXBFC1bmE6D23L7yj2Cxq+iVsuq/DCvj0EJ1iM1FtqlVZI0pzi9IL1qhBRTGLRj1ap4yeriphalKzJnyKYWWYX6pT9k449dyeDkRKtJi5P1cBbYH97FCpo4cvndXSmcOwcPIl/Qp6nuVbktqffJh9T6uLBaDHr7Zvb4jCcv/qXDtBXk8vmZH5ZuI3uWTASPSNgq+YQyvYHu1W9SqfVxYep9knQHRH38hhN/49V7UrL7nOz422K7aYF9cS/iGa0mLcZZo2Hjj11t5hADuGbIgYuTdXdWzJFb9xy/deWeWqWQNXsWhv/W30iWxysX/kt1u//6d5mmOMR+E2yz0D2DJgOuLqbzngVJQ4wUW0Dz3lGcc34D3ATMPyzV3HzxNzdeXrRKBIq1gVv4c04wC49MJWv2LAAc3BjC+l+3cf28buKu/I1UflWTmjhpnCmatTQfZbHtFIdZW46waM9J5vZqTc0ShdRqQSqQ3JHitUN0r9zaTdUttgAI7NWawrlysP/vm7SpWspohDG/uytrhnSmSO4cvHoTw6kb95RjJ3Zuwle1ypEpowv3I5/jv3I3G078DcAPberSvX4lsmfJRGT0K35Yuo0NJ/4mZFIfiuTOoZxf3m5ZZttP3cmeJZPJKGd+d1eOTPBlxaFzDFu2nZBJfQh78gxPd9025N4/zjUq89WbGA78HapsrvE4aCRrjl2kegkv8mXPRmT0K7ZuWKeEZFvSvwN1ShUmU0YXbj56yudTlynO6dohnalVUvd/6dLdR3SeuYoJnZrQpLzudS/63fYAxn/VmEV7TvJVrXKMW7OX8Gcv8e/YkEwuLryfMYNSf0v6d4jzeLlOWlcpxY9t65qte3k3v7Anz6j0UX4yZXRh+9lryvVO7NyEcoXyGW1xnRTESLH9cvjyLfou3IhP/Up810K3a5ktefw6jHNRh4nRvlGrksWAZqOJjnqp7Bprj7g4vUc5txrkej8xO/GKkeK4ECPFFnDKtgG0YxLsEANkcXEzCiuTVF5ERvPnnGBqt/JWHOLAYYuZ4hfIg1uPada1AbVaVuXBLV0IGHPhYVIaJ5zIluGdY2Er+jevwdiOn9I+YDnHruo2lhE4Nh/mdWf7uWtGsgalP+LXnceZvH4/2TNnUja5AJjQqQlhT56Ry+dnagyfx4d53ZnYuQkAPRpUpsbweeTy+ZltZ64yuYtukaZ3sYIMalmLH5ZuU0Z6Z/b4jPzurnj/OJebj56y/ew1E4cYoGSBXOz76x+1mHtPnnHp7mOqGdhW6aP8LNpzEu8f5yplBmw6SC6fn+kwbQV1ShWmdZVSSv7qJbz4dv56cvn8zIPId9FbJnZuQtWiBZRrOXMzjDX6Lw89G1Xhw7zuyg55r968ZaFvO7rOWsX2s9eU3fMMp2WUK5SPGsPnsXDXCSZ3acrRK7cp3i+AGsPn8UnBPPRsVCXe42X8OzbkzM0wpe493V2VzUsAiuTOwaNn0Xj1nsSIFTtoUr4Y+fVfEjaeuETJArqY6oK0x7Grt/kiYBljOjZKEYcY/dtZyQabd7Tp3ZQHtx+bRJiwJyS06f7ttDURTnE8aDLtQuMSCk6JCwdirQ569uBfRD97SZVG5QAIvXSHrUv2kMU1MwuPTMVvYjd+mNeHiWuGAbB4wmows+Xk2sAttPDsqsRJlD9vW7aPntUHWzV+ooSUYh20VZWSzOnZmj6/beRB5Au1WuBg5MuejYu3HyqfW1cpReTLV8oI7/Hrd/Fr8m4KRfTr//gwrzs/tNGFPvJfuZuNJ3SjH6/exDChUxNaVynF3G3HCNh0EICudStw89FT5ZwbTvxN5MtXNK2gizITH/JIrTnCn7/k/YzvXt8e+DtUcSblMuXPIdfu4NV7kmIDwNxtxwi5pnvw3ol4RrVGOie+WrGCHL9+VxkZnrB2nzKaHf7sJdkzZ2Ji5yZ4FyvImNW7+XXnceWc5mg67nflXAGbDjJh7bsv0q9iYuKcOmJI6yqlyJc9G34LNoD+S8H6439Tp9S7Y28+eqro5euW6zjk2h0yZXQx+oIjSBs8iHxBn4UbmdOzNa2q6DZeSAkyOWdGq41Vi5NN7Vbe1GpZlStnTL8M2wtabSyZnMWOldZCOMXx4OQ2G0kzXi22iLU66F8hVwEoXl43F+vMfl2YlWbdGigjxwCFSxYkOGwJKy/NU2QJYfGE1ZSvU5qPKxVVq5KMhDZFO2jbqqXoXLs8ffQPYIFjIzuG6LeENdwWuUn5YlQt+m71sd+CDWw7c5U2VUtxJqA/37eooTh8HaatIGe2zEzu0pQ9/j0VRzLL+++RN3tWQib1UVL2zJkS5Ay+ehNjNL3CkJzZMse5TW2W9xMWa9Uc72d0oWrRAoqthqPEG078zbg1e6lWrCCrBn3F/G/bqA+Pl1ofFyZ4xNeETOrDzO6fkcklYXMyc7qa9u+n0f+SyeBLQUIo7aXbJlaQduizYAOd65SnnfcnapXNed/5A7XIKvwwrw9NO9dTi+2G91PweRswbxG5PvHmSWQUAfMWmWy24d28Pdv26gYgLBEwbxGrNm1VPh85eQaXAiUJmLfIKJ9M8ZqN6Ts8ceu7koJFp9ialRAf6gpKbZzd5qGhIhpN0uZIWqODPryj2yLS0AEGyJw1k9HnpDJ4zrf4TeymhJuxBta47sQy8LNaFMjpxsCglN0jXWA78ru7UrJALioMnqVMD8jl8zOvYmKURVryKLD3j3OpMHgW6KdU5Hd3JY9bVpqO+53i/QII2HSQHg0qg350OfTRU920Bn3y6j1Jme8aH+opEjL53V0pkjsHxwwcekOiXydsVy5zvH4Tw56LN4zslac0eBcryMXbD6k7agFevSdx4dZDfmyrGzW3ROsqpahTqjAtxv8P7x/n0m7qMiJfvlJnM0v4M9ONAnJk+YBXcXwpEKQPBgYF6/4Pf5aYKAjWI6XeUNobWWy0sF3Nk8gopsxdSPuWzXDP/q6uP61Tk4nDB9G7S0dOX/iLlt2+JfSOLlRbfAybMI0lqxM+mNWzU3t+XboyQedODvE6xepKeJZZF/w4qZUQH4mtIEtkqtZOLUowGpd/0GSeB86T1KoEk9gOOq/yLrWIM/svUqy86Sr0ly9MH16XTlzj0gnj+ZiW+CBL0pxrc7bKZHZOmQ6qZmb3z/jrzkM2n7xsJDfeQtT+cSR7bWGr/Eq9T9NqRL58ZRLt4J8HT2hbVTcK9X2LGkzopJtDbJiv0of5lXnC6J042dYl+8+QN3s2ZT5vfndXrs4erEzBiIx+Reb3zI94jlm9m8K5c7Ckfwfl3N7FCrLsuw68iomJM/zZkv1nKJI7h+LMy2XGF4Hh2K5tAGw7e43qJbyU8lpXKcXjoJHkd3ela90KzOj+LjapofMd9vQZ72fMoHxWox7t/aFNXfJmz6p8ju/4DSf+5n7kcwJ7tQZgxycRNC1fjAN/63fsSSDm5irbGlvcs7bEUewNPnWFprc3MtPgfkxpsrnkwFlj/p5VE98zzB6Jy94MTi64ZdRtnGNrdh86SuSz5zRvaPzFu16Nqgz27cGcCaP4sV8vJEli7ZadPImMopPfIGUAtXjNxsoAqksB3dSanQcO41KgJEdOnlHO9+zFC5p37qUcI+s+rVMTgN0Hjyl5k4s5PzFep1hdCa4vdbuAqCsBsFgJGGwP7VKgJLk+8VaGyeOroKTy6phuV5yk4OQ2B6SxQNKjGiSmgwL4nmykFpFF9eCqUFcX0eHQxhBeREYrcjme4vTvU2bTE3O2AjhpnMjmYv71ckrwfYuazNxyxEgmScmf252SOJK91rb15qOn1Cml+xJY75MPOXrFdAHl0gNnKVkgF/ndXek8cxUFPXQO5tXZgwEYvnw7G078zYpD59jj35OQSX2Y3KUpv+1+N5/3972nmNylKY+DRnJkgi/Hr99l8vr9APy68zifFMzD46CRJk5ryLU7fLdoMwU9dNEmHgeNZHG/9rx685YW4/9nlNeQkGt3mLbpEINb1jYqMyFO4eT1+7lw66FS3uQuTZm26RD3njzDb8EGwp484+rswZz75Tuql/Bi0jrddczddozXb97yOGik0QI4mYW7TnDqxj3OBPTn9q8/UqpAbqN5+ZaO91+5mwpFPHkcNJIS/QJ48uLfBI22o5/6ERlt+sU+JbD2PWtrHMXeGcGHiPlMF4YstcjmkgMnTbwujUJczzB7JS57NTiR1UW326OtORSii/RSpbxuh7y4kL/IjZ46i9WbtxE40Z9Ni+cD0K3/UAAmDtfdK0W8CjBx+CDy5c6pHD9p9gIqlCnJj/16cfP2XQb56wYny5QsTnbXbGzYvlvJm1zM+YnxhmSTd6x7eOEo7tndlN3pJg4fxGDfHgCMnDKDSbMXMHH4IG7dDePXpSsJnOhP/nx5+H7UeCKjnvH4rxAuXLpKxcZtaP9ZU/x8OvHH+mB+XbqS0zvWs/PAYYZNmEYRrwL07NSeds0/TZGdS8yh+WAbzm5LwSlx+3erefj6LheijiYrRMyoTlN5EPrIKBxM4LDFymK72q28eREVzdkDugV5cpDxyb5zObTpOLVaViVvodxsXbyH6Gcv8RnRgXZ+zZUddwx36rEGGTQulM1egzzvp07bAXT85Q+aVihGt7oV1SqBjUluSDY5/FpyQ3WlBaY3KKKEZEtrmAu9lxRESDb7YMmBM2w9fZWVA79Uq1KU6LfPOBKxLV3tJpvByYUaHk3JkkH3JinhJD4kW/POvTh57gKP/woBg92KP61Tk3o1qvLsxQsmzdYNzF07soMX0f/y4uVL8uXOyf1H4Qzyn8TpC38pu9q5FChptIOxvBPej/168fNQ3dbL8oCpfEzzzr3YeeCw0Q561iber1Whd+6R3TWb0fwRgH1HjhMwb5HiEAO0a/4pvTp3YP+6ZTSsXY1sWbOQ3dWVyGe68EJZs+jmmu46eITt+w7SvGFd9q9bhmfe3IqD/VEhLwb79kg1hxgknF1ng9MEtSLRZMmQLdkRKPIUzMWD24+NRoX9JnZjaKAfeQvlYuuSPRzadJy8hXTBwuVdd9r3+4y8Xrk4tOk4Ny6E0m14e4Oz2hIpxeY3xcV3zaszM9h4tFiQMuTKlZPYV+/u1cQiR1aQpwqkZ9KqQwzwScE8TN2YvHUosa+icXcXGxbYAzM2H+a75tXV4hQnSwZXYqW3anGaJlZ6mwSHOGnsPHCYyuVMR4nlQc1JsxdQscwnbFo8n8IFC3D5xj+08fGjarMvmDBzPjdvm19zocY167tpXKlBvE6xNSuhcMECbFo8n+xurkyavYCW3b6l+4BhPH9hP6G0nNxmI1ET0IVDSg7W6KByKLazB423ma7dypvpW8cQHLaE4LAlTN86xmjjjsIlC7LwaADBYUsYu3wITTvXIzhsCe38mgPQzq85wWFLrDpKDPA2BTtoXFQr7oV3sYIWQ1MJrE+ZEsWIjU769ub3njxjz8UbdKpdXq0SpBF6NqrC8et3jaKMJIXY6Cg+LvqRWixIYX7deRzvYgWpVtxLrUoV3tMkbZ2Mo/KeU8pdb3ZX8wNeE4cPIubuJWLuXiJky2qa1q8NQOc+gyniVZDHf4WwZdkCs76kPRKvU2zNSngSGUW2rFk4unkV147soHeXjty8fZe1W3YanDn10LhcxSnLYjTJWFynJrkdtFL9suT1ysWx7afVKrvkfefkXa+1+KzSx+w6f10tFtiYupXL4fLSfBzfhOK3YIMyv1eQ9li460SC5x7Hh+Z5BHWr6AYNBKnHrvPX+azSx2pxqpHZxm8qT+09bxTzP/TSHVp4djXaF2Cy71w6lvQ1OMp22Pp6Dalcrgw3bpmu84iPyGfPOHLyDAHzFrHzwGEjXRGvAuw8cJiAeYsSFaihiJdtZxLE6xRbsxLCHjyibtvO9B/xM/cfhVOogG5LQnmoPKkVZC2css9B0o4BErNVYvxY44btPa4LL5//azSFwl75wArXaw0alSvK8et3efriX7VKYEN++NaHHC4SPL2vVgkSyfQGplFnBDrePL6De0YY3a+nWiVIQZ6++Jfj1+/SqJz14twnF9eM7jhpnNViqyHvGXD+iG5Oq+GmHnL0p7MH/qJ8HdvHaXbSOJMtQ8ossgMoXDA/N2/f5Ulkwt4GLpsbQGTUM+q27cytu2FULGNcJ2OHfkcRrwIMmzCN+4/CjXRxsfPAYSqpzmNt4nWKrVkJZUoWZ+LwQZy68Bd123ZmytyF/NivFz076+a7JqWCrIXTB5vRZHiGxmmIWpUsrNFBK9Uvy9jlQ0xiFdsjKdlB4yODkxONyhZl1wUxWpzSLJowgqjLp3jzOHmvxwUCc7x5dIeX186yePJItUqQwuy6cJ1GZYuSwSleNyJFyeaSPVFRnxJL1uxZqNWyqrKR1oUjl5SoUJdPXSf00h2in72kWhPbL/R21jjjmjHl5tXLUch2HzoKwGDfHsTcvaSsCVPToWUzHv8VQszdS8yZMIqQLauNFsh1aNmMq4d3EHP3EjUqV6BG5Qom55NnJABKJLOWTRooelsQ791s7UoY7NtDqYTHf4UoKwzlYw0rKMXQxODkNhucJqo1ycbWHdSeyKBJuXiJCeHTskXZdf6GWiywMTUrlWffHwvJ9SaS9+5f5k34vWQtvhMIYl9F8yb8Hs53/8bjzVN2LfuVGhXF1InUZtf5G3xa1n5GiQGyZnCFZC5wt0SZGrqICKf2nufsgb+o1rQSFeqW5vyRS4qzXL62bUcz0Yfr011vytC0fm2KeBVg0/Y9alWKsGX3frK7ZqNhLdsu6ow3JBv6rfUqlfmE5YHTyFStndm4bvZIQm11zj4d3n+Lxtn6YaCexzwl5MmuBIVlm1d5V5yxCO0Nc7Zm0LhQzePTVI1TbMj1+xF8NnExV+cMdphYn+hjPDqKvZZs/XnObxw8dZ6/rl4nIiJCrU5RXm37lUxNe6vFdosj2WtrWz08PChVvCi1KpZJ9pQJS/esvWHP9pboN43Nw7tRNK9uMMQebI2VYtnx8A+Ldph7hiWUh7cf8031wRQtW5jr50P57WgAR7acJGj8KoqW1W0XP33rGPVhycKcvRqNhsZ5vsQ5SW+jEx+SDf1o7Zzfl7Fk9hSTqGQyCfW9Eksnv0HUrV5VmV1gDczZatEpTkglOCqajH/jnKsHcB3IpVYnm4R20LSBhiZ5k9pBbYPnN+MJnf8DGTOkj9F6gUAgSAnexLylsO9kwn4boValOrsf/sl/2tdqsVUZ0Gw018+HktcrFwuPBigbaAH0mexD08711IdYnfec36dh7i/U4gSSNKc4PRDv9An0Q+Zbli1Icw4x8s512rE2cYjRz/nJqHlPLU511gZu4eBGXQBua5HRKaNdOcQAud2y8ihKvLoXCAQCa/LoWTS53VI3nmxcpMSC7/J1dPOI5d8lqxRTdqAtUUG3GM/WfOBsn/Xv6Fh0itMqmszr0WR4A07fqVVWJSU6aGIJGr+K3asPqcXJIpOz/S0EzO2WhYfCKRY4IMuXLVeLBAK74WHUC3K72d//fPRreTQ2dm26/vA5wWFL8JvYTZGtvDSP4LAlFC5Z0CivLdCgIatL2huoTG2cMq+38Z1jr2he4eQ6yyaL69RkzeCGJoH7sZtjVKeptPDsysGNIXQs6culE9d4ERlN4LDFSnzEUZ2mEnrp3Wp/WbZk8hpaeHalY0lfZWRYjqd4Zv9FWnh2VcLIJJdsKbT/emLII0aKBQKBwOo8ioomj52OFLu65CCDU9qeMpfByQU3F/tZ2J4m0LxC4zorfTrFztnnoJFaAXXUKqvjltGdDBoXtTjRLJ28hmbdGpAjtxtLp6xl65I99Jnsg//SQTwIfcSwzycaxTI+s/8iD249wmdEBwCm+AXyIjJa+ZzXKxc+IzqQI3fyv21mcLKvyBMyuVyz8PiZ/eyYKBAIBGmBx8+iyeVqnyPFqb2rakogSenjOlMS5+xz0dAqfqfYpUBJo5TrE2/6Dh+boLjF8gYehhtxNO/cC5cCunAmakLv3MWlQElWbdqqVlkVTcbzaDJtBCvuXBcfuhs3+QvtftniT9cfPiePVy62LtlD0bKF8SrmyQdZMlG+Tmmin73k7vV3myYULVuYH+b1oZ1fc2q38gbg7vX7ylbPeQvnpp1fc/J4WWE+taQbERcIBNahU+dOapFAIEgAWVxcidW+VYvTFFreksVFOMXWQpPxPGTaAE6T4neKZSYOH8TE4YPI7ubKr0tXMnrqLHUWE46dOpuojTgKFyzAp3VqMmrKTLXKqjhlnwPSz0DKvO63VgdVb95x/XwoQ9uMY2ibcWxdoosbePnUu80qDPPnLmDbUVwtsaKDCgRJZMqGA2qRQCBIIi6ajDin8ekTTjjjosmoFguSiFP2OWjQ+YUJcooH+/ZgsG8PXmbLD8CvS1cCcOHSVbybt1dGkpt37sWFS1cJmLeIYROmAVC3bWead+5ldL5Vm7aS6xNvXAqUpO/wsYq8dZOG3Lx9lwuXrhrlTwqZqrVTi9Bk/hONszM4+alVNiOhHXRe5V1qUbwULVuY4LAlBIct4bejAUxZ/xOffmn76SCYsdWeO+iRiX3UIrtGo9GoRXaLsNU6BGzU7dRkiD3bq0bYajscyV57stXSwm/1M8zeUdv7QYb4ry81Med72SuZqrXDKcsaNM5OoNH5hQlyimXOL9c5ujJf9OrPzdt32LR4PsvmBrDzwGEmz1lAtUrl+bROTQB6d+lI1/atjY6b/uv/GNqnJxXLfMKvS1cq2/dVrVAW9PtbJxd1QGacXuDsljKL69R8YKGDAiaBueOjWdcGXD8fytrALZzae57JvnMZ2mYcEQ+eqrOaJa9XLs7sv8jawC08vP1YrbaI2lZ77qA1hs1Vi+waR4ppLWy1HcuWLlOL7BZHqltHshUHs9eebM3m4havk65+hqUUawO3MNl3rtH6n4SgtjdrhpR5050UTHwvO+bV8f/h5DoTnN5Np02QUxwwbxEB8xYpI769u3QE4PfpE9m9ejGeeXKTP28eAKKev6BG5QrUq1EVgC/btKBDy2YGZ4MtyxYw2LcHn7doDMDfV3Wv/cuULA7AviPHjfJbA2e3OSB9Cdh2i0BzWDt0Speh7WjWtQF/zgnGv8s0oqNeMjTQL8GhYLr88Dl5vXIRNH4VTx9Znh9uCTHhXyAQCAT2gquLB85YfkNrjrWBW5TITnIa0Gw0p/aeV2dNNOePXOLsgb/U4kSRQZMBt4zuarEgCej8wo5GfmGCnOJhE6YxbMI0bt6+Q+8uHRkzpD8A2/cdpGLjNnzRqz8TZs5XHxYnKb0RiOa90/D+DnCaoFalCK4uHmRwSloEirHLhxActsRIljV7FvwmdlPiIi48GqAspgMIDlvC2OVDlM/t/JoTHLaEklWKAVC7lTcLjwYYyZKKsyYDri6igwoEAoHAPsjq4hrvSHFCqFC3ND4jOihvZv27TEvSm1VDxi4fwspL80zWCCUGjcbJ6gNt6ZF3fqHx7IEEOcUxdy8Rc/cSj/8KYc6EUbhnd+PIyTNMmr2AH/v14urhHWxZtkB9mN3g5DYbjWYckDpxFbO6uNo8mHhq4aRxwjVjDrVYIBAkAxF9QiBIOpmds6GVtGpxoihboyTt/JrjN7Eb7fu3BODIlpO8iIxmyeQ1dCzpq4wiG8b7P7X3PAOajVZGmQOHLVamS8j7DiQHrRRLZmf72xTM0XBymw2Y+oXJ9tRu3rrLkZNn6OQ3yEhewDMvABNmzk90mLXCBXUL+qyBU9aV4JQFND3VqhQjs3M2q0SgsEdiRQcVCAQCgR3xvvMHVgmFao6lU9ayetYmytf5BJ8RHXhw6zFD24xTRpED+s4nOuolU9b/RJ/JPmxdsofDW06qT5MMNPrrEyQV2S/UOJn6hUl2imtUrsCP/XqxevM22vj4Ub60cfzhhrWq0/6zpuw8cJglqzcY6eLiyMkzAJQtWUKtShpOkThlm4kmhWISx8X7zh8k+1WOPSM6qEAgEAjsCUsRKCxx/sgl1gZuYcnkNayetQmAGs0rs3XJHvJ65VL2ARg851vQjyIDZHXLzIPbj9m//hg58+XAf+kgytcqZXTu5JBJPG+ThwW/MF6nWJ42ERc/D/1emVYx2LcHMXcvKdMo3LO7sTxwmpFsy7IFRueTjxns2wP0c5QBGtaupuRJDs7Z5yBpfYDKalWKk8k5s1qUJkir1yUQpCbLly1XiwQCQSJI7rzbM/svEjR+FatnbaJo2cL4Lx2kbHaVt3BuJd8HWTKB3okGGP5bfyrULc3WJXvw7zKNgL7zuffPAyV/csmSzOtK71jyC+N1ilOa1Zu28WmdmhQuWECtSjSa90LgvYNonFM+BJs50mqEhrR6XQKBQCBwXFxd3JO8wB3AZ0QHZS+A6VvHUKm+LmQswIPQR8rf/0a/Av0cZIBX0a/xm9CNP/4KpM9kH6KfvWTTop1K/uQgFrYnj4T4hYlyim0ZlDn0zl0+KuTF8O90ryKSi0u+MqAZB7yvVqUK2TN6kEETdwdVB+e2Z2RbnTTOuLrY9yI7sXmH7RC2CnCwunUkW3Ewe+3N1qwZ3NBI5m1KzvO2WdcGPLj9mMm+c1kbuIXlAetAP7UCYOzX0xn55RTuXr9Pzny652PmbMmb8vDumetENjuOUYyN/cTk4pR9rj7ogs4vNHfPJsoptmVQ5sIFC7Bl2QJqVK6gViUap6zL0P43Ao3ma7Uq1ciSwS3eCBTq4Ny25tTe84zqNJXQS3fUKovItjprnO3+W6vYvMN2CFtthyNFn3CkunUkW3Ewe+3N1iwurmgxH4EiOc/bLkPb0b5/S84e+Iug8asAjKZWDJ7zLVncMjO0zTj8u0yjVsuq+E3opjpL4pDtlZDI4mLfb2dt6ScmB6dsy9A4eYCBX2juntXEPutjKk0FtM+tNKLnHE6GPE1BcwQop9amGv/GRnPw8WZipYRHobh04hpD24wzkuX1ykWTzvVo59fcSJ5Y1gZuIWj8Kqas/ynJsYozOGWgVs7PErRjX2rww9JtFM/nQfcG5ucOCQT2QC6fn3kcNFItFgjslt/3nOTq/Qgmd2mqVtkVW+8vR4rDMXZEnDRONM1rjS/MGuv5XDbEajYmwi90csrmQeqmv9U2JQvdJOo+Fi88pfnAOUuS4ybm9cqFz4gOtO/fkhdRLwkav4qDG0PU2RKFekOPpKCVtHbrEAsEAoEgfZMpQ9paCG69SE+jzfhi9pSs7Be6zQEpYX6hRjI3fpyi+KN9HmGVbwSa9w/j7D4BNDcAZ7U61dn3eAP/vn2hFseJPFJcoW5pZYe6U3vP499lmiLbtmwf6wK38OD2Y/J65aKtX3Oadq4HQOilO6yevZlDm3TbZss79BQuWdAqI8WZnDNTP3dbtdhuECPFAkfA3Ejx8mXLHWoKhSB94SgjxSef7uXx6zC12GHJ+V4+qrg3UIvTIKnnF8Y9ydUBcXKbA5rxCbrw1CBLButucnFwYwhzfwgii1tmfEZ0IItbZub+EKSMIssOsf/SQfgvHcS1szdZPXuz+jRJJouLda9HIBAIBAJr4erijrMmg1rskDhpnHHNaN9reOwRJ7c5QML9wjTjFDtl+x8ap4LAV2qV3ZAtQw6cNAlrGEMehD5ibeAW1gZuIaDvfAAatq/F7tWHAJQg4vJosizP6qab2rBp0U7+ffGKwXO+pX2/z5TzJgcNGrLZeeQJgUAgEKRfsrlkxymNuDlO2H+0J3vDKdv/QFMQNAn3C9PG3eJ8H6dsM8DJ/A4l9oJrxhw4J8Upvv2YoPGrCBq/iqz6UeHarbwVvbzqNWt2nRN8Zv9F0K+Sbda1AWf2X2SKXyD+XaYpuuTirMmAm4uHWiwQCKyAmDohECSfzBmygWnULYdEQqu7HkHC0PuFce1cFxdpwil2zj4XtEMA622laAsyZ8hmNgSIJSrULa0EEV94NMAk8oS85/qLyGglP0DEg6c07VKP4LAl+C8dRBbXzEoImeQiIYkOKhAIBAK7JWsGN95KMWqxQ6IllqwZxG52CUXnFw5OtF9o5BSbC2RsiCU9CchjSU8Cgz//v707j4uq3P8A/hkWy5DFNEsEFW9JkgtuKGFikmS5QIgmV/SmmLmSuaRyryjYRc0lUzQXwET84UrilmGYlIYhmktSWldUFkutK6jVrXR+fzDP8czDmTkzcAbOge/79ZqX8DzPnPnOec54vjzznOewNrqHjwANzgF2xkuXWfI6SrSRq4eojbODG+5Bekk2ucXEpepfGPYcAAiLiLf4T8Uaz6x8+6q9mNLvX8g/fAaPNGoIZzcn3L5VkTibIvU6vA+6H8I9/V9mP6By+0WuHgq1seTmHXLbgAVt5OqhUBu5eijURq4eCrWRq4dCbeTqoVAbuXoo1EauHgq1kauHQm3k6qFQG7l6KNRGrh4KtZGrh0Jt5OqhUBu5elShzUN2FbdhFrP0PMcsnrAaqYt3GtXDgu3I1cOKNlLvg7F2n5gi10auHgq1kauHTJ6oe/gI7JzeBez+zVcZkXodza8+Yf9EOHT28wHdUL5KlbJ/2oXf7/3KF0uSWn2Cx68+IV7DmF994qlOXoheGqXI6hMP2TXEC0+E88WqoqbVJ5qNXsAXEWLSe0Ft8Fb2Jb6Y1EP8yiRqoJXVJwDg+M0s/PzHg9syy/k88zhulPwsnEdv//cOXg+Yibad25g8D1vj9WdnoHNgB0xcaN0NPR5t0Az+TV/ki+soBfJCh/kArM8LNZ0U27kmQffIJejsP+KrVMvaD6haaeEDqrakWI0nN6JOtCQbgYr/39BSUlxQlo+rv35v8Y2zYkcswakj57CvJJWvUgQbkEr6cqlwPZAcHXRo7eQNH9faP5fVjOrkhcmwc7oE2FXcfttamp1TrHO4Cjtn6ydR1zaXBlVbgUJVdICzyu+/TgghhLhacc5lCTEADGwxCrvW7Bd+jh2xRGhXkHcRb708DwNbjMJwnwlIXbxTuKZn15r9GNhiFD5O+wyvPztDeC5/zc/XX1h+gwp7nQMtx2aBirzwPcBuIV9lMc0mxXaN1wD35wLw5qtUzdXxUdhbuF6eWjnoHNH4IVp5ghBboVFiQpTRyMENsPAL8ReGPYfmhtHb0f98Fe26PcU3wY9XruPtV97BtcvXMfqfr6JzYHtsX7kHm9/dZdRuU8J29I98Hs8N7oFTR87ho/UHAQBePi3RyNUJuR/nG7U3S6ereB/ELLvGq6udF2oyKdY1/BQ6x+8Bu/l8leo1cnCrE0vE0AeUEEKI2jVycMFfJi5w5/UO6YnmXo8DAIZMHCB5vc2x/ScAABMX/gNDJg7ArA8m4alOXjiQmm3UbkbieAyZOAD/mF0xr/WHs4VCXdvObaxaHvXe/T8Vv/lXXaNr+Cl0Df5T7bxQk0mxfeNEwC6BL9aERg4u+MvCuU1qde/+X/QBJYQQonr2Ogc46hz54mpr2vzBjTTYPQIK8i4KZY80qlgtwtJ5w+Y42DWoM3fmsxV74Y7G1aO5pNjebR0AXwChfJUm2OoDWpMc6QNKiE1tSdvCFxFCqsgWa+rfvPaL8DObLyw1sqwEJ/uKpJtIs3NdC+iUyQutSoql1nSrSTqHS9A1SrRoEnVtx2rOI/bOfJFFaxXCMIl/8YTVwoewNsR3tM1VubZgyTrFaqLm45ZHsRJobN9qKVYAOB+onRtPqHnfOju4Qad7kO6YO98+0bJiZHfNnE1GI79MwICKFSDWzNmEXWv2I3XxTnx/phAvjwrim5rF5i5bYqJ39UdAa0pNHwc6h0uwc15tUV7Ik4rVqqS4tldvs2u8Gvr7cQDa8FWV1Has5jg7NoaOm1g84UQ/o99hmNC/a81+ow/mmWMF+DrnG6N2VfV55nEMbDFKuCOepRIvxvBFqhUwZzVfpGpqPm55FCuBxvatlmIFgGdytPOtopr3ratjEziIvt2UOt8yL418Xpgj/G3+93w1nmjVDO9+9C80b90MG/+9DQc2ZePlUUEY+bbpm0nwTh05hyc7efHFkux1Dthb9CFfrFo1fRxUXFxnWV7Ik4rVqqS4NukaHoTOsQQ6u3/yVZrj5tgEDhZMofjlp1vY+O9tRh/M+C0zsbXgA2EOU3V07t0ejVydkLH2Y77KJHudA9wcaeUJQmyJVp8gRDmNHF0rDUSZ4uXTEu8diMO+klThBh77SlKNbtzh49dWaLO14ANMXPgP4Zw8ZOIA7CtJNZpKIX5+/uEzAAD//l2FenPsdHZo5OjKFxNRXggF80LNJMV2bquqNDyuRpYc4OxudgCw8d/bMLDFKMCwjiL7GYbR5MUTVmNgi1EY2GIUFk9YbTTyy9ZITF28U1hT8fPM44Dh4oDOge2F3y2hgw7OjrTyBCGEEG2ouMBdHVNR8g6dRiNXJ3Tu3Z6vknRPf48ubDfBvnEioFN20QVNJMV2bonQ6Z4F8DJfpUmNHFxwT2aJmEcfdxPmKHXp0wGj//kq3wQAMDfiXXyx5ysMix6MYdGD8cWerzA34l2jNqeOnMO1yz8J23h34hphTnLHAB/cKbsrOXdKyn36gBJCCNGQBnYPq+bi8Nu37uAfMcMs/rbXTmeHBnYP88X1nn3j1QD8AV3FaL5SVJ8U6xwvws4puc6MEsPwAbWTuYHHE62aoc8r/gCATgE+wtc4YgV5F3HtynW8PCoIo2aFY9SscAyLHoxrV64bJblPdfLCrA8mYcjEAegd0hMAUPR9KQCgVdsWACA5d0qKnc6ePqCE2BitPkGIshraOfFFtWLWB5PwUuTzfLFJaolbTXSOF6F7JMkmeaHqk2K7xqsB/QIAnnyVpj3iYNlfiZZ43PPBHF8n54q1EcVJrvgvUnHbqmjoQB9QQggh2tJIo9P+aLpiZRV5YbxN8kJVJ8V2Tvuhc/gFsHswwb2ucFbwjnA/Fd0Ufr57+zcAkLw9pRIa2cvPhyaEEELUpHGDphZd4K4m9joHuDo24YvrNd0j+wx54dt8lSJUnBT/BTvXlZq9c50ctwZN4Whn/gP66OMVifPBtM+wa81+vho+fm3RvFUzHEjNRurindi1Zj8ObMpG81bNrF5E/LEW8h88e5093B6q3kgzIUQerT5BiLKcHFxhJ1qrWAvsdHZwdmzMF9djf1Xcuc6GeaFVR4jUQse2Yv/oakDfF0AwX2WRmoy1KpwcXI12v9Ri4k+0aoZh0YNx+9ZdbPz3Nr4aALAg/W08N7gHtq/cg43/3obOge0RkxTNNzOJTbPwfMqdr6rETmcPZ4fGqt+3YnTzDtuhWG1HS/FSrLZDN+9QjrODK+7pKy5wlzrfqtE9/T04O7iqft+K2TJWu8aJAKqeF/KkYtXppVYvrlHzcb/8Ju6XP0hedI4FsG/2GqD7HsATRq3rit/v/Yoj13fjnv4eX1Wj3np5Hu7cuosNXy7lqyqx19mjT7NQPGz/CF+lSrM2fwxv96YYE1RxB6La1Gz0AlzfOJcvJoQQk9T6/0ZK9glcKL2JxSNf4qtU7eC1/6v1c6417HT2eKn53/niesBEXvj4awBsmxdaNVJcU+warwawwKZvvLapIbH88cp1fH+mEP0tvBJWr5K4CanraPUJQpTXUMEL3GtCQzrfCuwbrwbux9s8L1RdUqxz2g2dw2+AbipfVec8bF+7KzkU/+cauvTpgOCIQL5KUkM7+oASQgjRpkb22lpj34kubAcA2DllAg6/AnZv8VWKU1dSrPvd5pOo1UTJFSiqolvfTojfMtPiRcQtuRMfIYQQZcwI6c0XkWpwdWwKB5XcxEOOHezh9pD8BfB1nu53w6ILyq9JLEVVSbF949WAfgAAy77O1zq3Bk3gILMChVrYwQ4ujo/yxcRCapwXSNSLVp8gAPB2qGXf4hHLODu6wU5n/sZZamFvZw8XBzrn2rklAhhYY3mhapJiXYOz0DXMqLG/BtSgkYMbdKh89aMa2ensab1EQgghmtXIwQX39ff5YlXSQ49GDtqa7qE0XYOz0D1Ss3mhalafsGt4FnB4FdBpawmt6rj7VzmO3jiAv/TqX3bHXueA5x4bACcNfUilVp8o//ykURtSs1x6d+WLFEH9Wrts0a/Up7XLXJ9qdfUJADhQmgY9ajntsYBOZ4eXm9fXb4wq8kLdw2egcxxeo3mhKkaKdQ0KAAddjb5xNXBycNHM8jB63NdUQkyIlu29+h1fRAhRQG1f4G6ph+0a8kX1iq5BAXSONZ8XWpUUSy10XH1/QPfQV4Du33xFtdgmVuWxJc7Uvph4A7uHhZ+1sm+hwZt3eM59gy9SLYqVQGP7VkuxQmPxauW80MjBVfXnWxgGzRit7FsoFivLC2276IJUrFYlxbaZadEAwGgAvfiKarFNrMpjc4YmnOjHV6mKk2gpG63sWwAImLOaL1K1ogXr+CLVolgJNLZvtRQrNBavVs4Lro6NMTlf3dM+dLCDi8OD2ztrZd9CsVgbABijeF7Ik4rVqqTYZmz814CauTZoAnuVLxGjgw6uDegqWEJqyqCWT/NFhBAFODs2hr3KV6BwsHOAa4N6fmG77h2+pEaoICmeCqD+zlV1dnCDnU4F3WCGvZ0DrTxBCCFE85wd3VS/AoVer4ezY+3ex6B2TQVQO/dFUEE2Vp87vuIDWnkAX33q9weUEEJIXeBk74J7+IsvVpW/9H8aTVmsf2ov31BBUly/Odm74J7Kl2T76359/4DWPNfAbgibOQWugd3gGtiNrxbKpepI7TLVL+I+k+u/vVe/M1tPapa5vjBXZykltkEsY6ezQwPdgwvH1aiB3cOq/wa5rqK9Xsu08AF9iD6gtaYsJx8wnDSlsHqiTnzyW5aTb9RnZTn5lZJkvq+lfufLSM2S6iu+D809dmVnVXo+qTmNHNU9yFPfb9pRmyjTUQG1r//7iIMzX0SqiT9J8g8AyM7LNTppmjqBip/Db4ffJqkd5v644ZNk/neYScKIbUntc9fAbkI/8X3FP8R14p+HBAULv5Oa5+LwqKpv90zTFWuPVUmx1JpuaqWlWF0cG2N1t0/4YtVwdjD+gGpp36p5neKokPBKJ1GX3l0rnUD5kyx/kmZ2ZWcJP/PPsQUtraFaE7FKJVBVNSKy8p2s+P60Zd9aoyb2rVKsjVVqn4s/h3x/82XVZW28tUlL54UXm7+q2hUo7HUOcGvwmFGZlvat1mO1KimWWtNNrbQUq2uDJph6chBfrAr2Ogc0fqiZUZmW9q3a1ykWn0hdA7uh/POTRsmtOezkHOTnj7JaGH3S0hqqNRGrOGFifWItdhxI/WetVjWxb5Vibax8ksv/nhL7YDlRcX/z7fifLf2MWxtvbdLSeeHcra/w5/0/+GJVuKf/C424a3i0tG+1HqtOL1VKatStP27i2M2P+WLVCGj6EtwaNOWLVW/W5o/h7d4UY4K6C2Xln580alNbXAO7ISokHMunzearANFJVDwqJSYuD/LzR8aSVUbt+BM0X1ZbXHp35YsUoZZ+Bdcn4n1v6mf2HFO/m6tTC1v0qxr61DWwG1JiEzAmPkb4F1y/SJHqK77fzNWpgbk+Tck+gQulN7F4pLpvgkGItSgpJnWWFpLi5MydfBWC/PyRnZcLmDiBirEELDsvt9JJW9yGL6st5k601aGWfgXXJwyf+PB9wv++9+p3iBwZaVFbNbBFv6qhT00lvqxf+M8c3zeW9jlfpwbm+pSSYlJXWTV9ghBiG2UScxcBYNryRaJWFSdS8QOGC/IACCdnUvvYHynWEvcrw44FtmKBuIzYHutHqf4Uf+b4fpPDf+YJIbWPkmJCVEAqGWLEiRD/YPjfSc0T92GQn3+V5nhTP6oPS3z5Pzr5vhL/Lj4WzPWnuc89IaTmUVJMSC2SOqmy+cFyXA1f37KfSe3ik6Sqcg3shsiRkUZlZTn5klNjiG3xfcp+Z8ms+HPH/87a8z+L27Dt8a9DCKkdlBQTUsvYyZBf0L8sJx/JmTsp8a2DpBIk9rvU1/SkdvCJLvudT2b55Jc9xMmz1Hak6gghtYeSYkJqkfgkOyQo2GSyxGP14udYuswTqRmsj+RGAMV9zY4Dnit9K1ArTCW8fEIr7hPx75YkznwdIaT2GCXFcmtjytXDgjZy9VCojVw9FGojVw+F2sjVQ6E2cvVQqI1cPRRqY8nNOyxZIF+ujVw9LGzj0rursMYtS4TEcxk9574hm2zp9XrJk7WYXCxy9VCojVz/wcI2cq8jVw8F2rgGdjN7xT7DtiGVJDFpm9OEn1kfiv8AsuZ1zJFrI1cPC9vI9aFcPSx8Hbk2cvWwsI14//N9V2a4CY8c8euY+qzKxSJXD4XaWNI/SrSRq4dCbeTqoVAbuXoo1EauHgq1kauHQm3k6mFBG7l6mGhDS7KROkutS7KJk10+6YXMkmyMqYRYKmGWKqstliQLVaGGfgXXt7CgH6TKIFqSjeHrTT2vttiiX9XSpzCzv/n+Zm34z6s1+NeoLeb6lJZkI3UVJcWkzlJrUlyfmTvRVkdd69e9V7/DoJZP88WqZYt+rWt9qjXm+pSSYlJX0ZxiQghRGS0lxIQQUldQUkwIIYQQQuo9SooJIYQQQki9R0kxIYSozN6r3/FFhBBCbIySYkKqaNryRWg1sC9+KS8DAKxIT4VvRKiwvFKfcaOQdfwY/zSbWZGeirCZU3C5tISvshq7kUjuudN8Vb2hdP9a2j+sfkV6Kl9VJfz70JLLpSVwDeyGFempwn6Xeii1r6y1KztLOCZq8rNyubQEYTOnKPa+tXyMEKIkSooJqYLLpSVIztyJIX2D8aiLKzbuycC8tSvx39vliAoJR1jfYHx9oQBDZ71pVeJUHVevlSI7Lxd3fr3LV1ltSFAw3JxdsCQ1ma+qF2zRv5b2D6s/c1GZ0eIxg8Nw63Y5Uvdn8lWqt3LrZgBAaGAQgvz8EeTnj87ePgAAN2cXocyz2RPcM2vGmPgYFJYWI258NJo3eYyvtpk7v97FyW/P0zFCiMKsSoqlFjpWKy3FCo3Fq6VYLbl5R1V8lv8VAKD/s88BAPZ+8RkA4K0Rr2H5tNnYOC8BK6bHIMjPH7fvmk+CxOQW0Tdn+bTZKMvJR/sn2/JVFovfsEZYY3VI32Bk5+WaHNmsTqw1zdpYbdG/lvZP+yfbYuKG97BxXtVv9/xLeRnCZk5B2MwpaP9kW3i5e+DDPRl8M0VYu2+tsetwFjp7+6C1ewtkLFmFjCWrsHDKNABA13bPCGVSdwGUomSsbGQ4yM8fUyNGobV7C75JtZmKt/2TbXFl32FVHSNaOi9oKVZoLF6tx2pVUqylJY21FCs0Fq+WYg2Ys5ovUgRLkoJ7BgAAWjevOCF+uCcDu7Kz8Et5GUYPDqt0wo7fsAatBvaFa2A3+EaEGn39GTZzCso/P4mNezLQZ9wooc03P1wU2oi/wm81sC/iN6wxer74a1z21bL4K96wmVOEr0h/KS8TvjZl28s4nIW48dEAgIBOXQBRgsgrWrCOL1Ita2O1Vf+y/sk9d7rSFABxXfnnJxE2cwpgSL5Y34m3L+77b364iNFxMcJ2Ov/9FQDAiP6DAAB9u/dEYWmx0bGkFGv3raVyz53GrdvlCH3+Bb6qEn4fuRr+sOOnvLzg0EQ4/vnnSO3XrOPHhM+ia2A3jI6LwS/lZcg9dxr9J48FAGTn5Qp9x79mq4F9sSI91WgKDnsNlpDCzGf1iwmxRp9RFps4dv53U+/F1seIls4LWooVGotX67FalRQTQipk5+UKX+MCwL/GTkBnbx8UlhZjTHwMvAYFIWzmFKOv1uM3rMGytBT07d4TKbEJ6Py0D+atXYld2VlCGwCYvz4Rfbv3RFjfYBSWFmPyu+8AhvmL89auRBsPTxxMTMKQvsFYlpaCjTKjOwuS1uC1wWHo7O2D7LxcJG7bAgBI3LYFyZk7MX/cZBxMTIKXuwcKS4sRGhgEAPBu1RoAcK6KJ0kts2X/AkDzJo8hbnw04sZHI6xvRVLt5uxi9iv47LxcnL74Ld4a8RrcnF2wLC1FeP3J776DwyeOY8fi97Fj8fsAgEvFRULC3sEwOn3hymXRFtXtq2/OAgB8vP7GV5mUnZeLjMNZCPLzR9bxY5i3diXcnF2wY/H7mB45BhmHszD9vcWVniO1Xy+XlmDorDdx63Y5dix+HyumxwjPb97kMUSFhAMAvNw9hOkT8RvWCK8ZNz4aXds9g3lrVwqfOWZZWgp+KSuDb9t2RuX8Z7VTRAguXytBVEi4EJu5pNXUe0EdPUYIURolxYRU0aOurg9+dnHFkfWp2LH4feEElp2Xi6Gz3hRGC5elpQAAxoUNg3uzZoh4cQAAYMvBvcJ2AGDDvxYg9vWJwlejX18oMKo/+e15HDr+Jfo/+xwOJibh+W49jOp5h9dtwtSIUcLXzqcvfmv07+jBYfDv4CuMyF37+QZg+IoWAC5fk54+UdfZqn8BoLV7C0yNGIVRA0JQWFIMANi6cLnwFXza5jTuGUBnbx9kLFmFqRGj8NaI1wAABYX/AQzHSNd2zyC4ZwCCewaga7tnUFhasV0AeNqrDQCg6PqPQplWODs58UUmdfb2wen03chYsgptW7bGwcQkLJwyDc5OTujX81kAQNmd25WeY2q/AkBhaTEOfvkFWjR7vCK5HvEaWru3wNB+/QEAbTw8hekTyZk7AQAZSyu2lzT3HSE5FV/ENj1yDI6sT0Xs6xOFMog+qzFjKqZNsNhiX58oJOG3f/vV6Dli5t5LXT5GCFEKJcWEKCi4ZwCWT5uNK/sOC9MQ+Hl6/SePRf/JYzF01puAYXRHzFQSMCQoGHHjo9HYcJIdOutNDJ8zTfbCrUddHiR3YmyUauOeDOSeO43dn30KGEYxiTQl+lds+nuL8fWFAqyYHgP/Dr58tRFxks7r7O2Dk9+eR9bxY8g6fgwnvz0PL3cPvlmdJ95Hd369iwkJ89F/8ljMWbXc5EWjpvZra/cW2LH4fXT29kFy5k4MnfUmhs560+xI6q3b5YDoM/eoiyu6tnsGAHDhSqHQzqVRI+FnMfY89n+AODZTzxEz9V5AxwghFqGkmBAFsHmA4q/T2de+/zWcKN2cXeDm7IKynHzhcTAxCQcTk4TnmHO5tAQ92nfE4XWbcCY9E9Mjx+DW7XLErlvFN7XIqAEhAICpyxKE+ZE7Fr8vjFaa+5q2vrFF/8ZvWIOMw1mICgnH6MFhfLVVprwaiVu3y4XErW/3nkhb8K5Q/13hJaP29UHsulUVo7yJSTiyPhVJcyumIVnql/IyODs54cP5C1G4NxspsRXf3IyJj+GbCtycXQDDc5mT354HAHi38hLKagMdI4TIo6SYkCpwc3bBpeIi4ffXDEnN6+/MFS6gef2duQAgfO0ZFRKOW7fLMTouBivSUzE6Lgb9J4/F+oztwnbM+Sz/K/SfPBbT31ssTHGA6CIwa8VtWI3O3j5CAndkfapwYRlEX9P27tJd9Kz6wdb9m3X8mDDdomVzd6xIT8WK9FThYq3IkZHcM8yb9t4iTI8cI/TlxnkJRqtclN29AwDo0b6j6Fnq5upUMTJaev06X2WVQ8e/xK7sLITNqLgozVKl139C/8lj8dr8Ocgv+EYoNze6yo6FsBkVawiHzZyCW4Zl/Ex9Y1NT6uIxQojSKCkmpAqGGC6CY8uVTY0Yhbjx0fBy90B2Xi6y83LR2HCxDZs3GPv6RMSNj8bX3xVg3tqVOHziOKJCwrHsrVnc1qWNHhyGuPHROHziOPpPHovkzJ2ICgnHv8ZO4JtaxMvdA19fKBCuRnflbkhRlQud6gpb9694zuq8tSuFB9vn1vJy98CytBSjvhwdFyOM9n9+6gSggtFKa7C58sfOnOKrLBL/xhR09vbBsrQULEhaI8zTtVT7J9tix+L3hdHVMfExCOsbbDS6ymPHwK3b5Zi3diVOfnse0yPHVPkzqqS6eIwQojSdXmpNChN0Op3kEhZqpKVYobF4tRLrrM0f4+ameUj+NE8oK//8pFGbqmJLMq2YHlPtr77FPOe+YbMlrnhhM6fg5LfnhQtyyu/cwbK0FLg5u+DKvsPoM24UCkuLcWXfYf6pQBVjdendlS9ShFy/WhurrfrXUtbEe7m0BKHTJ8HN2UW4WPLMxe+QcTgLYX2DseytWRWrZfQNrta6tqZ4zn0DZTn5fHG1sWXpTn573uQxaC1r9qsaKBVvVY4Rc5/VlOwTuFB6E4tHviSUaeW8AI3FCo3Fq/VYrRop5p+sZlqKFRqLV0ux2mqdYv8OvvBy98Cmfbv5qmpR4gRoKTba6eP1N/Ro3xHPtHkSANDY2QXf/HARX18oEBJmKTUZa3VZG6ut+tdSa15/iy8y6drPN1BYWoxHXV3Ro31H9GjfUfiKv7GzCzKPZAOGVTFswdp9a40R/Qfh1u1yi+8aKMeWsdqCUvHWxDGipfOClmKFxuLVeqz28+fPn88XElIXfHr2BzR1fgSd2zyYc/u/K9eM2lRHJ++n4ezkhLatWqPhQw/z1arXtd0zOFHwDVZu3Yy0A3uQc+oEXu4ViKVvzsTt337FUy1bY9SAEEXf20Ot3PkiRSjZr0xt9u/Fspvwdm3KF0vyfPwJNHz4YXx24iskbktD2oE9+PHmDQzpG4x/jZ2Aazdu4PluPTCo9/P8UxVji37935Vr8GnzNzR8+GE81vhR/M2jJd+EWKgqx4i5Pv26sBQ/3/4V/To9xVcRomlWTZ8gREtmbf4Y3u5NMSbowYVicl+zE9sy95VsddS1ft179TsMavk0X6xatujXutanWmOuT6WmTxBSF1g1fYIQQojtaSkhJoSQuoKSYkIIIYQQUu9RUkwIIYQQQuo9SooJIURl9l79ji8ihBBiY5QUE0IIIYSQes+qpFin0/FFqqWlWKGxeLUU67GFk/giVfOca91dt2oTxUqgsX2rpVihsXi1dF7QUqzQWLxaj5WWZCN1Fi3Jpj7mlnmqDurX2mWLfqU+rV3m+pSWZCN1lVUjxYQQQgghhNRFNFJM6iypkWJCCCHVQyPFpK6ikWJCCFGZLWlb+CJCCCE2RkkxIYQQQgip9ygpJoQQQggh9R4lxYQQojIjIkfwRYQQQmyMkmJCCCGEEFLvWZUUSy10rFZaihUai1dLsWrt5h1a2rcUq+1oKV6K1Xa0FC/FajtailfrsVqVFGtp9TYtxQqNxaulWAPmrOaLVE1L+5ZitZ20zWl8kWppad9qKVZoLF6K1Xa0FK/WY7UqKSaEEEIIIaQuoqSY1FkNGzji1//9yRcTQgiphl//9ycaPuTIFxOieZQUkzrrcbdG+KnsDl9MiOrR6hNEzX4qu4PHXRvxxYRoHt3mmdRZH311HgdOfYcNE4bwVTXu5LkCxCxeiVPnv8WtO3f5akIIqcStkRO6PNMOCbOi0bWDD19da17/YBde7vI0XunxDF9FiKZRUkzqrNwLV7Ew4zPsmfMPvqpGnTxXgJ5ho7B05AgM6toZTZ2d+SaEEFLJzdu3sffk15ixeQuOZ6SqJjEelPAh5gx5Hs96t+KrCNE0mj5B6qzH3Rrhx1u3+eIaF7N4JZaOHIHRfXpTQkwssvfqd3wRqYeaOjtjdJ/eWDpyBGIWr+Sra81PZXfwhBv9X0bqHqOkWGrNNjG5eljQRq4eCrWRq4dCbeTqoVAbuXoo1EauHgq1kauHAm08mrhid9sfcevu73yVEXPbYOTamKs/df5bDOraGZ5z3+CrKpFrI1cPhdrI1UOhNnL1UKiNXD0UaiNXDwvbyLFkG0q0kauHQm3k6qFQG7l6KNRGrh5WthnUtTNOnf+Wrzb7/w6jRBtx/a27v6Pk5zJ4NHE12cYUuTZy9VCojVw9FGojVw+F2sjVQ6E2cvVQqI1cPSxoI1cPE22MkmK5mRRy9bCgjVw9FGojVw+F2sjVQ6E2cvVQqI1cPRRqI1cPBdo0cLBHzG+dcOjMRb7KiLltMHJtzNXfunMXTZ2dUbRgHV9VibiNa2A37MrOMlnPrEhPhWtgN+H3ogXrsCI9FWEzpxi1E5PaDuMbEYrtwybwxQCAy6UlcA3sBt+IUJPbCJs5Bb4RoYDM64Crn7Z8kWTM/DZYDOJ988WEWLgGdsPl0hKjtgzbBv8834hQ4Xf+daQMbewF18BumLZ8EV8FiLaRe+60ZDy+EaGY7hNgVFYVUrFOW77I6L1JteGxNruysyrtG3G9OabeM+uny6Ulstth9b4RoZJxiNuYI9dGqp7FyT5HX0yI5ZsAhtjYe5PajphUPX98S7XhsTZNnZ0lr0Uw9/8Oo0Qbcf2hMxfRz7ctGjjYm2xjilwbuXoo1EauHgq1kauHQm3k6qFQG7l6KNRGrh4WtJGrh4k2NH2C1Gn9Oj6JQ2d+4ItViSUE7AEAY+JjcLm0BNOWL5JMxnLPnca8tSvh5e6BsJlTjNpk5+UKP4fNnIIV6alGz4UoGWInfNfAbigsLcaEhPl8UwBAa/cWAIDC0mLsys5C7rnTQgLMXp/V87F+88NF5J47LfzOkhD2SM7ciey8XKxITxUSLLY9sdDpk+Dl7oEx8TFGrwkAnSJCAMP7YnEx7P2PiY8xioP/3ZyWzd0BAJevSSffPBYP89rgMMxbu7LSvuENavm0sH/k2sJwHCRn7sSY+BijfSr1EB8HbP+5N2sGAFiQtEa0VdN+KS9D7rnTRkn/ktRkQOI987+b08bDEwBQdP1HvqoS/n1JPcT44803IhS+EaE4+e15o3bT3qv4rPHHamFpMTpFhFR6Df7Bnse/nqXHt9odOvMD+nV8ki8mpE6gpJjUacG+bZElM1Jc21hiWlhajJTYBABASmwC4sZH800RPXyk8PO05YvQf/JYwJCEZuflAgCSM3di3tqK+YfJmTvhGtgN2Xm5mLd2ZaXkb0HSGni5e6CwtBit3VugLCcfUSHhQnJiypn0TAwJCkbzJo+hsLRYeI2DiUnIWLIKZTn5WD5tttFzBkwdjx2HDgKGhGbe2pXC+w3y88eZ9Eyj9gCM9gFLJApLi1FYWgwYEn9wiZdrYDeMiY8xSswvl5Zg3tqViBsfjbjx0eg/eayQ0AX5+cO/g6/RHwjmRIWEI2PJKr5Y0pn0TOEPGvaeIeoX9pAaIZ8aMQopsQlIztxpNjG+XFqC/pPHIiU2AWU5+WYfceOjcfVaqfDcjCWrEOTnL/TL7mUVd4Bk+1pqxBYAMo9kC8ceDMcw6/8gP3+jfcj60NQfdryU2ARMjRjFF1fi5e6BID//Su+xLCcf4I4dJiokXPh57tiJgOGPIgBC37Bjiu2TXdlZmLd2Jc6kZ1Z6Hf4R5OeP0uvXq3R8a0XWmYsI9m3LFxNSN+gJqeNCF23Sf3L6Il9cYxye7Kovy8k3+Qjy89fHjY/We7l76AEIDy93D+ERFRKuB6A/k56pjxsfrY8KCdcfTEzSA9AfTEwStsW2Ezc+Wh/k51/ptcSPlNgEYZvicrbduPHRRttlbQEIz2VxRYWEV9q++LFj8ft6APodi9/Xp8QmCDGK3y8AfZCfv/Da7F/2mmU5+cK+YNvl4+HfC3vAsD9Ze/bg97l4O+xnax5vDBmuD/LzF/Yhe7A+EvcjH6Oph3hf8HXivhK/t5TYhEpt+Qfb1/w+ED+83D0qPa8sJ1/f2dtH39nbxyiGqJBwo30mtV3W92WifWHNQ7zfpLYvfvD7i31uIIrV3DYOJiYJ+/5gYpLRezPXf9U5vs09HJ7syv/XUuM+OX1RH7poE19MSJ1BS7KROm/L56fxUd557JxROzdEcHyqG35ONj9/0NTXqGwUV0pKbAIWJK2RrE+JTcCWg3uFUS8mbny0MArnGtjN6HexFempwsgqq/eNCDV6raiQcFy+VoLsvFxEhYQbjQyvSE/Fh3sycDp9NwBgdFwMDp84jiv7DgOGUcPkzJ1CezFT7znIzx+9u3QXRvT4uhH9BwmjfoyXuwf6du8JGEZnWdnp9N3C+wny87d45JfFfSY9U5hKAtG+iQoNR/LuB+/Ly90DbTw80bp5Cwzt118Y0YVhhDIlNgFDgoKF9szeq98hcmSksP99I0LRt3vPSqPvvhGhaOPhiYwlq0zGJuYa2E14/2K+EaHYvWy18LwV6am4eq200uvBMA0mIOrvWDE9BqMHhwmxsf0bFRKO6OEjhdF7U8eYFDbCLI7vcmmJsK2DiUnw7+ArtGXvnccf2+Jt8FJiE4S+WJC0RpjiwsrFfQAuNrHcc6fRf/JYYTS6Kse31HthmkS9gT+/rxgFry3hS7fgFb9nMKJ3RR8QUufwWTIhdVFwXJI+M+88X1wj5EaKywwjmeKRtpTYBH2Qn3+lUbUz6ZlG5V7uHkYjflEh4cK/bDv8a7HnmRoFLBON/rEHP9LJts2PvPKPID9/feHebD240WS2nTLDew/y8xfe+8HEJKMRUHE5G2GTGnFj5fx7KRONivIPcbl4JNDUyDdrz5ezfuDbifexOD42Qmkq3rTNaWb7h3/w+8XUg7UTHxdSfciOD/a7+NuI6ZFj9OBGS/nng4slyM+/0rHDvwe2HX6fsPj4kV9zo7x8+6iQcKPtnknPNIqHxSrVb2Wi/rR0/4qPE/a7Jce3+DX5R22PFGfmndcHxyXxxYTUKTSnmNQLUwf2wop9R/liVWEXSsEwipidl4vXBocZtZEaAezdpTvKcvLRxsNTGJ1iF4TxF16xC9BeGxwmzAWWerD5onHjoxHk5y9ceCcebR0TH4NrP98ADKNtZTn5OJiYZPR7xpJV+OzEVxWxcO8FohHy7LxcjImPgZe7hzASCACezZ4Qta7g5e6BjCWrkBKbIIwas3bZeblG74PN1W3dvGK/sbmfXu4eiBsfLcx/hmFfRYWEo0xiPjRzqbgIXu4efDEgeg2I5qXCMKLJRhlZfDDEkp2Xa3Sxmq9oNQwp7GJI8ZxdNqoPADNHRVWa58r6hI14luXkG41O787JRtz4aKPnnE7fLYyIRoWEG/VJxuEshPUNNjoWxfN72dxZFsvBxCRk5+UiOXOncFxIjY6z/SDej2JSx4K5OcVih08cB0QX53WKCDEayWX9xf5ln43cc6cRNnOKUM6OF/GDzQs+mJgk7F/2HqpyfKvVin1HMXVgL76YkDqFkmJSL7zUxRvNXBth02cn+SrViAoJF75aT4lNQJCfv1B3+MRxo9+ZwtJizFu7Ujj5ii8kYgmeOFEpuv4jCkuLERoYJNSx1zyYmCSUse1MjRiFjCWrcDp9N3ZlZwnlc8dORNz4aHz1zVkAEFYvkLJqWxq83D3Q/snKF+ewBCbIz1+IA4Cw3a7tjG8je/VaqZCwsK+8xcTJitT+cuVWX/A1rPjBkkJTyTBTWFosTMfgyxlxUssSy9Ppu40SqN3LVgsXnLGv9S+XlqCwtBjuzZph46qKC954rd1b4Ex6pnARYdjMKfhwTwaC/PwrJVyW+nBPhnAM8Q8Y/hBif2BkHT+GwtJiDOzVh9+MkPCz1RzYBWf9J48Vji2pZJhhf2AFdOoiWS6F/yNIHLfY6fTd6N2lO2A41qJCwhEVEo648dHwcvcwOm7YMV6Wk4/+k8cKCa74s2Upa49vtdr02Uk0c22El7p481WE1ClWJcVSCx2rlZZihcbi1WqsUwf2QvyObHxXct2ojVokZ+7E6Lg5gGikmCksLRZOzpeKi9DGwxO5504bndDZNtp4eMKz2RNGKxywxOvDPRkoy8k3GuU7duYUAMgmVAuS1hitfrGs4Bh6tO9o1IZ3ubQEX18oqDTizbAEho2kMWyFhNbuLYTluZo3eQyHTxwXEiw25xOi5EKcGGXn5SI7Lxe5507Df/SrgCHxn7d2pZDEtvHwhJe7h9E8a6mVICBKdvmkjY1wstH5LQf3GiVALDFmI7oHE5Nw7ecbSM7cKSTjMIzYwvA+56xaJjyf19q9BeLGRyPZsMTXBzHSy+dZgr0ncVLIP9hIc3ZeLg5++QXcnF3wfPcewjbYDSaC/PwRNz5a6BP2hxIbaWYrWkgtDQjRag98olh6veLzKvWHl6UjxcynX30pjFoz/DcmrI7FKfeHkjnWHt88S27wYWvflVxH/I5s2VFirZ4XtEBL8Wo9VquSYi1dk6elWKGxeLUaa8+2LREz5HlM2pCJ3/7406hdbWMn843zFgpf7QNAaGCQkLgM7dcfECXIOw4dFJaVWpGeiuy8XJxJz0R2Xi6Krv9YKVEoM3wtzkvO3FlpFOzytRKjaQIr0lPRt3tPo2S6aME6YcTLVEL9WX7F1InQwCCj8uXTZhslMCyJZMmzOCaWQFz7+QbaeHjCv4MvLpeWCCPFQX7+CJ0+qdJ7ZQ//Dr5IT1gujKTyo8vipCgqJBzZebmSUxjY8nX8aCcbyfRs9oSw5B2fwPlGhAoXLgJA/8ljEeTnb3Qh2Ly1KxHk54/W7i2wcMp0o+cz05YvwrTli4Q/RlJiE0zue0uMiY/Ba4PDhD8Gpi1fBN+IUGH5tLCZU4SktCwnH7sOZ2FI32A86vLgbmZFC9YJx+TUiFGVjiX2xxm7CG3e2pVGU0ZgeP+sz/kpQuKkkS2bZyqxFvtwT4bQr6xfTO1X8XJr7BsGNhWiKqpyfPPvGxbe4MOWfvvjT0zakIl/DumLnm1b8tVGtHpe0AItxav1WK1KignRuqig7gh4ujUmbai8ZmhtYifvMYb1dT/ck4G48dHYnZONBUlrEGRYS1ecTCyfNhtd2z0jjEbBcOMBNteWJVBsioC4HcNGRfnRMDYazUyNGFWpDQB8fupEpSRI7P30VHT29ql0whev3QvRSgwf7skQEh42Ks1ulOHfwRcZS1YhbOYUYVR1THwMlr8122gOqPj9ipNb8bQLccIvHm1fPm02gvz8hdFzht28QWpUVjySWXr9OmaOihLqxGsrn0nPRI/2HYUVKLINN3KAYZTYyzBXGgBGT5kkbENMvC/KZKYjyJm2fJGQAAYZVvZIztyJuWMnIjlzJw4mJuFScRG2HNwLL3cP7MrOwq3b5ej/7HP8pgBR8svm7zLiaTzsGJK6YQYkjkNwSeOQoGDh+G7j4Wly+kSQnz8KS4sRFRKOIMPawVevlSI7L1eYPgHDce3l7mF0Uw72DQ2/prc1qnJ8q9GkDZkI8G6FMUGV/+8gpC6ipJjUO/HD++HevfuI2/4pX1VrWNLARj4LDXOF2Vf9y98yTibYV/ih0ycJiQ0MFzcNCQrGwcQkXL5WgsvXSjB37ERhxEp8gda05YsqvhI3fD3OsLmtpi54YnLPnUZ2Xq7RlAre6fTdOLK+8qgeP5IW5Ocv/EHARlRZIs0SGYhGxNlIKRtZLDNcPPfVN2fRxsMTZYa5oWMMd6tj71P8mqZcKi4SpkLAsJ9YTFKjslsO7gUMieqQoGCjNix5LcvJx8qtm4UR4iFBwYgbHy388TI1YpTkKD7vUnERX1Qlu7KzkJy5E62bt8C8tSsxov8goW5IUDDKDCPsp9N3I9twwScrD+5pfJtqljyy98luACKF/VEnHkn3jQiVPA6Z5MydRsc4i4PFzM8JZt+WwPDtSsaSVRgSFIzL10qQEptQadkz9odOSmwCvNw9hONEqq8tVdXjW03itn+Kv+7dR3xE1f/wIkRz+OUoCKkPyn/9Xf/K4lT9m8l7+CrFyS3Jxt/EICokXFhCiv3OLz8lfl6Z6EYcUg+2vBRb2kq8LbY0Fr8EG0zcoEC8PBYkli5jcfDLZ4kf/GuJl49jZfyND1JiE4TnsZjF9fyDLW8lXkqrTGJJOf51xA/x8lviJcT4+MWvx7fh+5ZfiozV889P25xW6TXMvZ54CbAyE8usiV+bLREWFRIu2Vfi984vT8Y/IOpv8bHFlg/k44DE0mbiY02qT0zV8cef+MFeQ9zPLF5LH+JjjR1DZSY+b+w98MeHpcc3Hz//qMkl2d5M3qN/ZXGqvvzX3/kqQuo0unkHqdfe2rgXhT/9F4mvh8CjyYN5kkp6rHMgvnonDk2dnfkqQgiRdfP2bfT41zzc+DqHr1JU8c9lmLwhE16PP4r3Rg/kqwmp82j6BKnX3hs9CM93+BsGJXyIDYfy+GpFdHmmHfaeNJ6jSgghltp78mt0eaYdX6yoDYfyMCjhQ/Rp34YSYlJv0UgxIQB2551H/PZs9GjriakDe8HbvfLySFV18lwBeoaNwtKRIzCoa2caMSaEWOTm7dvYe/IUZmz+PxzPSEXXDj58k2q7UHoDK/YdxVcXixA7LAihftpYO5kQW6CkmBADvV6PFfuO4v39X2LEc76YOqgXHnNx4ptVyclzBYhZvBKnzn+LW3fu8tWEGPlw3lt4Le49vpjUM26NnNDlmXZImBWteEJ8o/wuVuw9ii1fnMabA57F1IG9JNdtJaQ+sSop1ul0kuu6qZGWYoXG4q3rsf5y51es2HsUydn56Of7FPp1fBLBvm0VS5DNqUq8tYVitZ0taVswInIEX6xKWtq3WooVNoj3RvldZJ2+iKwz3+PTMz8gKqgbpg7qhUcbPcI3tZrSsdqSlmKFxuLVeqxWJcWE1Ce37v6OQ2cu4tCZH5B15iI6e7mjVzsvPOHmjMfdGgn/1kSyTOoXLSXFRH1ulN/FT7fu4Mdbt4V/j35biK8LSxHcqS2CfZ/CCx2fgpvTw/xTCanXKCkmxEJZZ77Hyf8UVzrZNHVxwhfvjOebE0JIjTt87j+YtGF3pT/eu/7NA8GdnuKbE0JEKCkmhBBCCCH1Hi3JRgghhBBC6j1KigkhRGW2pG3hiwghhNgYJcWEEEIIIaTeo6SYEEIIIYTUe1ZdaCe1pptaaSlWaCxeitV2tBQvxWo7WoqXYrUdLcWrbKzzDQ/bUDZW29NSvFqP1aqRYv7JaqalWKGxeClW29FSvBSr7WgpXorVdrQUr/KxduQLFKN8rLalpXi1HqtVSTEhhBBCiM399Qeg/ztfSohNUVJMCCEqQ6tPkPru/q8vQP+/u5QYkxpFSTEhhBBC1EVnh3s3F0H/x2/A/eF8LSE2QUkxIYQQQlTp3o0E6P/8Hfp7r/JVhCiOkmJCCFGZEZEj+CJC6q17NxYCf/2PEmNic5QUE0IIIUTV7t1YCPxJiTGxLUqKCSGEEKJ6925WJMY0x5jYilVJsU6n44tUS0uxQmPxUqy2o6V4KVbb0dLqE1rat1qKFRqLt6ZivXdzIfR//F6txLimYlWKluLVeqxWJcVSCx2rlZZihcbipVhtR0vxUqwEGtu3WooVGou3JmO9d3Mh9NUYMa7JWJWgpXi1HqtVt3kmpLIjfAEhpJq2pJVgRGQLvpiQemIT7t92xv2yCXyFEfvHYqBzfAiw28pXEVIllBSTatJB/2dPvpAQQgipMv1vXXG/fBJfXIl909nQPeQE6P6PryLEapQUk2rS4a/iAr6QEEIIqRH2j8UAjg9BRyPGpJqsmlNMCCGEEKIm924k0HJtRBGUFBNCiMpsO3KKLyKEmHHvRgLwV9UvviMElBQTQrRk254DcPT0gXevF/kqizl6+mDpB8l8seDYiVMYEDmOLyaEqNy9G9Vfro3Ub0ZJsdSabWJy9bCgjVw9FGojVw+F2sjVQ6E2cvVQqI1cPSxs09B/CF9kRK4eCrWRq4dCbeTqoVAbuXoo1EauHla0YYks//Du9SIcPNpVKnf09DFKSsWvk7p9NwDgwtFPhDIY2kyOicfSD5Jx7MSpSttz8GgHGBJeAJiTsEz4WbwNAEh4fy2yco5W2gbbjvj3yTHxktswx5I2cizZhhJt5OqhUBu5eijURq4eCrWRq4dCbeTqoVAbuXoo1EauHha0uXdzIeweGW42MbbkHKZEG7l6KNRGrh4KtZGrh0Jt5OphQRu5ephoQxfakWqiC+2IZbbtOYDISTNwJCMNADDmrTm4dKUIfxY9OH7EbXLzv8achGWiLVimTStPXLpShIUx0zFjQhS8e72Ifr0DkJgQiwGR45CVc5R/Co5kpCGgexds23MAse++b5R0O3r6IG31UnxxPB+HPj+Gg/+XhLYBLwrbByAk8fvT1gMACq8WYdnajdi+5wD+W1aOxq4uGDb4ZcTNjEaTxm7Ctmtb4dUi7NqfBf9unRHQvQtfLbm/hg16CbMmj0NHH2+jcp7Utpd+kIw5CcuE/c23bxvwItJWL8Wrg182qiPEWrRcG6kKmj5BCKlxAd27oF/vAMCQdLJH5KQZQpsZE6LwZ1GB8FgYMx0AcPHYJ0bl/CPlvYXCNsSOnTiFrJyjSFu91Gh74oQ4ctIMpLy3EAMix8FRNM0idfturNu8FZeuFGFyzALAMNpceLVI2O6oYaEAgLMFF9Dj5aFYt3kr2rRqidlTxqFNq5ZYt3krnh30Kn7+7y1RVLWr9KcbmJOwDLn5X/NVRt4YORwLY6YjOLAXtu/9GEPHRfNNKrF024xXS08EB/ZC7Lvv81WEWO3ejYRq3eCD1E+UFBNCapU4oU1bvZSvBgyjiHMSluGNkcPh1dLTqI5NlzA3TxiGkemFMdOFpIttL6B7FxReLULkpBl4Y2TFCZQlz2xUE4bE8OKxT5CVc1RIzL1aeiL9o30AgBeeexYAsDhxPf5bVo6FMdNxfP92LHh7Ko7v345hg17CpStFyNifBRj+GBBPE2GJOJvWwernvrsCjp4+JsvOFlwQnsumdLDEm+2bue+uENp493oRZwsu4NiJU+gTFgkY9gXbnpSIVwZixoQo7E9bj64d2+PSlYo/Bs4WXEDPAcOE1x4QOc6ibRdc+AHevV4UnlN4tQgAENr/BVy6UoSzBReM2hNSFZQYE2tRUkwIsSmWmLFR4D5hkVZfKNf/72MBAOs2bxUSMPZgyddnx74CALg//hjAJWPrNm9Fv94BmDEhCk+2biWUJybEAoZRyj+LCpCYEIsxb83BGyOH44vj+QgO7AUYkuTp40dj2dqNCA7sZZSYH/r8GLp2bC9Mi9i+92MAwOjhxnMft6xZhj+LCvB65DCjcils9YmsnKM4lPOlMKotVTZ0XDROnD6LPZvWIm31UqzbvBWjprwttAeARavWo0tHH8yeMg6XrhRh3My5cH/8MeGPgODAXkavYamh46Jx6cpV4bWzco5iceJ62W3/c9FyvD5iGIYNeglZOUeRsnUXAKBHl06A4T0SooSKxPh36CkxJhagpJgQYlMB3bsYjQJfPPZJpTm77CGePsEMiByH10dUJJJvjBxeaboE225iwlwAQN7pc0LbNq08ceFoxaguS4DF+NHlyTHxuHSlCIc+P4bEhFhk5RxF+kf7sDBmOtoGvIjWni3ww+UrcBSN6F66UoS/tTIevQagyNzhrh3b4/j+7cLcZb7s2IlTuHSlCMMGvwwX50bwaP4EunZsXympnD1lHBa8PRUL3p6KNq08cfLsN/Bq6YmIVwYCAJ4P6GH0Grz0j/Zh6QfJGDFxOk6e/QZtWnkioHsXpLy3EJ9u34QWTzwOj+ZPAABuld+W3famle9ixoQoTBw9AgBw6mzFvHI2T5n9gUOIEu7dWAj8QYkxkUdJMSGkVkkluIx3rxfh1dJDSKqkRor5RJolZ4VXi3HpSpHQjq2CAcNrLoyZLowmOxqmFRz6/BgAIP7tNwHDfON1m7fCv1tnvDFyOOYkLMOFo5+gTauKaRMsMe7cofLUA37uMJt/zKYKWEIqsZYqW7d5K/qERaJPWCROnv0GEK20AQCuzs7Cz0+2biX8bKl1m7diTsIybN/7MYYNegk71q8EABz87HN0ffEVDB0XjYT31/JPM8nFuRFfRIjN6WhdASKDkmJCSI3atT8Ljp4+KLxaDJgYKS6+9qMwajt9/GjhueZGisWCA3vh+YAeACBcIMa2zZZbE69sERzYC5euFAnJMMNGuQO6d0FiQiz+NKyUcelKEdZt3ory27eN2sOwOgMAYe4wMzlmAfqERQoj2ea82qfyShDmzJ4yTtgfJz/5SHJ1h+o4kpEmbH/LmmXo6OONYydOYdGq9Zg9ZRwuHP1EWHmDELWxbzqnYiUK+218FSFGKCkmhNQItsYwu8Btf9p6Iclk808XxkzHn0UFeHXwy0IS6tXSUxhdtWSkmDdkQDD2p60XLphjryF+bRaLn28H4Xn864gfC2Omo00rT+z/NAcAcLmoRHjerMnj0NjVBRPnzEfPAcMw990V6DlgGLJyjqJrx/bCBXmNXV2QlXMUc99dgckx8ZWmPFgioHsXtGnliXWpW7FtzwFs23MALwz7B14ZPZFvKonNv96wZXulqSSWunS5YgR8xETjecPV2bZXSw++iJAqoYSYWMOqpFhqoWO10lKs0Fi8WopVbqF3tdFSvJbGyqYtZOUcFUYc2fxeliyJR4NhmEcsTqRKf7oBAMJyauKH1EixWOlPN+Dg0c7ipcEY8WuwhJq9/owJUbhw9BMkJsSiTStP5J+pmLIAw7zYrw7swBsjh+PSlatYtGo9Ll25KiTfbPrDqoRYNHZ1waJVFSOss6dI37BEzo71K9GvdwAiJ81A5KQZaNOqJT7dvolvJsmrpSdmTxmH/94qs3pN6IDuXTB7yjhs23MAr4yeWGkKSVW2zaZ8dPJ5mq9ShDX7VQ20FK8aYzWVEGvpHAaNxav1WOnmHaSa6OYdpGrYusBpq5fCz7eD0Q0xvHu9iNdHDBPmErObPrDRXantXDz2CbxaeuLYiVPCXemY4MBeiHlzPPqERQqvAcNo8BsjhwtJuqkbSLAlxvhyAJj77gosWrVeeH0lbDtyyuopFHWBLfYlqZ9MJcSEmENJMakmSoqJ5Vhyy4gTVO9eL+LSlQcXobGVI1iiKm4LQ0IrxhJm8XbESbR47VzmjZHDsW7zVqEdey1rZO/4EEFDX8OahfMtWm7NEvU1Kfbu9SKebN2K5ieTaqGEmFQVJcWkmigpJmTpB8m4XFQiuexbVdTHpLjwasXdAmPeHK/oRYKkfqGEmFQHJcWkmigpJoQQUvsoISbVZdWFdoQQQgghakMJMVECJcWEEEII0SxKiIlSaPoEqSYd9H/25AsJIdXwf9sm4++vJvLFhNQb+t+64n75JL64Ersms2D3kBNgl85XEWI1SopJNR3hCwgh1bQlrQQjIlvwxYTUEx/i/m0X3C+bwFcYoRFiojSrkmKdTgcrmtcqLcUKjcVLsdqOluKlWG1nS9oWjIgcwRerkpb2rZZihcbiVTbW+bh/+xezSXF1EmJlY7U9LcWr9VitSooJIYQQQmzLfFJcnYSYEHPoQjtCCCGEaAIlxMSWKCkmhBBCiOpRQkxsjZJiQghRmS1pW/giQuo1SohJTaCkmBBCCCGqRQkxqSmUFBNCCCFElSghJjWJVp8ghBBCiIrMx/3ym4DjVboxB6lRVo0U63Q6vki1tBQrNBYvxWo7WoqXYrUdLcVLsdqOluJVOlbdI4dslhArHautaSlercdqVVKspUFlLcUKjcVLsdqOluKlWG1HS/FSrLajpXiVjlVn18UmCTFsEKutaSlercdqVVJMCCHE9mj1CVLv2SghJsQcSooJIYQQoiLz+QJCagQlxYQQQgghpN6j1ScIIYQQQki99/+9EzzwEmOXrQAAAABJRU5ErkJggg==;" vertex="1" parent="1">
          <mxGeometry x="1660" y="880" width="709" height="394" as="geometry" />
        </mxCell>
        <mxCell id="yyUo9B62AOgykevneYDa-5" value="" style="rounded=0;whiteSpace=wrap;html=1;" vertex="1" parent="1">
          <mxGeometry x="710" y="310" width="120" height="60" as="geometry" />
        </mxCell>
        <mxCell id="yyUo9B62AOgykevneYDa-6" value="&lt;font style=&quot;font-size: 60px;&quot; face=&quot;標楷體&quot;&gt;轉譯流程&lt;/font&gt;&lt;div&gt;&lt;font style=&quot;font-size: 60px;&quot; face=&quot;標楷體&quot;&gt;Translation&lt;/font&gt;&lt;/div&gt;" style="text;html=1;align=center;verticalAlign=middle;whiteSpace=wrap;rounded=0;" vertex="1" parent="1">
          <mxGeometry x="1510" y="110" width="330" height="150" as="geometry" />
        </mxCell>
      </root>
    </mxGraphModel>
  </diagram>
</mxfile>
